<?xml version="1.0" encoding="utf-8"?>
<!-- Generator: Adobe Illustrator 19.0.0, SVG Export Plug-In . SVG Version: 6.00 Build 0)  -->
<svg version="1.1" id="Calque_1" xmlns="http://www.w3.org/2000/svg" xmlns:xlink="http://www.w3.org/1999/xlink" x="0px" y="0px"
	 viewBox="0 0 215 6.3" style="enable-background:new 0 0 215 6.3;" xml:space="preserve">
<style type="text/css">
	.st0{fill:#B3ADAD;stroke:#B3ADAD;stroke-miterlimit:10;}
</style>
<line id="XMLID_2_" class="st0" x1="0" y1="0" x2="0" y2="6.3"/>
<line id="XMLID_3_" class="st0" x1="5.8" y1="0" x2="5.8" y2="6.3"/>
<line id="XMLID_4_" class="st0" x1="11.6" y1="0" x2="11.6" y2="6.3"/>
<line id="XMLID_6_" class="st0" x1="17.4" y1="0" x2="17.4" y2="6.3"/>
<line id="XMLID_5_" class="st0" x1="23.2" y1="0" x2="23.2" y2="6.3"/>
<line id="XMLID_8_" class="st0" x1="29.1" y1="0" x2="29.1" y2="6.3"/>
<line id="XMLID_7_" class="st0" x1="34.9" y1="0" x2="34.9" y2="6.3"/>
<line id="XMLID_14_" class="st0" x1="40.7" y1="0" x2="40.7" y2="6.3"/>
<line id="XMLID_13_" class="st0" x1="46.5" y1="0" x2="46.5" y2="6.3"/>
<line id="XMLID_12_" class="st0" x1="52.3" y1="0" x2="52.3" y2="6.3"/>
<line id="XMLID_11_" class="st0" x1="58.1" y1="0" x2="58.1" y2="6.3"/>
<line id="XMLID_10_" class="st0" x1="63.9" y1="0" x2="63.9" y2="6.3"/>
<line id="XMLID_9_" class="st0" x1="69.7" y1="0" x2="69.7" y2="6.3"/>
<line id="XMLID_26_" class="st0" x1="75.5" y1="0" x2="75.5" y2="6.3"/>
<line id="XMLID_25_" class="st0" x1="81.4" y1="0" x2="81.4" y2="6.3"/>
<line id="XMLID_24_" class="st0" x1="87.2" y1="0" x2="87.2" y2="6.3"/>
<line id="XMLID_23_" class="st0" x1="93" y1="0" x2="93" y2="6.3"/>
<line id="XMLID_22_" class="st0" x1="98.8" y1="0" x2="98.8" y2="6.3"/>
<line id="XMLID_21_" class="st0" x1="104.6" y1="0" x2="104.6" y2="6.3"/>
<line id="XMLID_20_" class="st0" x1="110.4" y1="0" x2="110.4" y2="6.3"/>
<line id="XMLID_19_" class="st0" x1="116.2" y1="0" x2="116.2" y2="6.3"/>
<line id="XMLID_18_" class="st0" x1="122" y1="0" x2="122" y2="6.3"/>
<line id="XMLID_17_" class="st0" x1="127.8" y1="0" x2="127.8" y2="6.3"/>
<line id="XMLID_16_" class="st0" x1="133.6" y1="0" x2="133.6" y2="6.3"/>
<line id="XMLID_15_" class="st0" x1="139.5" y1="0" x2="139.5" y2="6.3"/>
<line id="XMLID_38_" class="st0" x1="145.3" y1="0" x2="145.3" y2="6.3"/>
<line id="XMLID_37_" class="st0" x1="151.1" y1="0" x2="151.1" y2="6.3"/>
<line id="XMLID_36_" class="st0" x1="156.9" y1="0" x2="156.9" y2="6.3"/>
<line id="XMLID_35_" class="st0" x1="162.7" y1="0" x2="162.7" y2="6.3"/>
<line id="XMLID_34_" class="st0" x1="168.5" y1="0" x2="168.5" y2="6.3"/>
<line id="XMLID_33_" class="st0" x1="174.3" y1="0" x2="174.3" y2="6.3"/>
<line id="XMLID_32_" class="st0" x1="180.1" y1="0" x2="180.1" y2="6.3"/>
<line id="XMLID_31_" class="st0" x1="185.9" y1="0" x2="185.9" y2="6.3"/>
<line id="XMLID_30_" class="st0" x1="191.8" y1="0" x2="191.8" y2="6.3"/>
<line id="XMLID_29_" class="st0" x1="197.6" y1="0" x2="197.6" y2="6.3"/>
<line id="XMLID_28_" class="st0" x1="203.4" y1="0" x2="203.4" y2="6.3"/>
<line id="XMLID_27_" class="st0" x1="209.2" y1="0" x2="209.2" y2="6.3"/>
<line id="XMLID_39_" class="st0" x1="215" y1="0" x2="215" y2="6.3"/>
</svg>
