<?xml version="1.0" encoding="utf-8"?>
<!-- Generator: Adobe Illustrator 15.0.0, SVG Export Plug-In . SVG Version: 6.00 Build 0)  -->
<!DOCTYPE svg PUBLIC "-//W3C//DTD SVG 1.1//EN" "http://www.w3.org/Graphics/SVG/1.1/DTD/svg11.dtd">
<svg version="1.1" id="Calque_1" xmlns="http://www.w3.org/2000/svg" xmlns:xlink="http://www.w3.org/1999/xlink" x="0px" y="0px"
	 width="355.764px" height="132.418px" viewBox="0 0 355.764 132.418" enable-background="new 0 0 355.764 132.418"
	 xml:space="preserve">
<g>
	<path fill="#FFFFFF" d="M104.515,103.873c0.318,3.109-0.703,4.88-1.522,6.851c1.08-0.064,0.743,1.287,2.284,0.762
		c0.526-1.541-0.826-1.204-0.761-2.284c1.716,0.194-0.301-3.345,2.284-2.283C105.521,106.419,105.525,104.639,104.515,103.873z"/>
	<path fill="#FFFFFF" d="M102.992,121.762c-1.469-0.088-0.853,3.395,0,3.425c-0.681,0.969-1.514,1.785-1.522,3.426
		c0.507,0,1.015,0,1.522,0c-0.225-1.747,0.118-2.927,0.761-3.807C102.252,125.038,103.306,122.717,102.992,121.762z"/>
	<path fill="#FFFFFF" d="M62.649,49.828c0,1.776,0,3.553,0,5.328c1.457,0.189,2.014-0.523,2.283-1.522
		C63.895,52.642,64.569,49.938,62.649,49.828z"/>
	<path fill="#FFFFFF" d="M106.037,85.985c0.042,1.944,0.198,4.004-0.761,4.947C107.738,91.873,107.162,86.142,106.037,85.985z"/>
	<path fill="#FFFFFF" d="M91.574,49.828c-0.668,0.209-0.824,3.072,0.761,2.283C93.003,51.902,93.16,49.04,91.574,49.828z"/>
	<path fill="#FFFFFF" d="M61.888,60.485c0.761,0,1.522,0,2.283,0c0-0.508,0-1.016,0-1.522
		C62.713,58.773,62.157,59.486,61.888,60.485z"/>
	<path fill="#FFFFFF" d="M100.708,106.918c0.507,0,1.015,0,1.522,0c0.065-1.08-1.287-0.743-0.761-2.283
		c-0.954-0.504-0.924,1.771-1.522,0.38c1.433-0.724,0.496-3.817,0.761-5.709c0.507,0,1.015,0,1.522,0
		c-2.638-3.234,1.647-8.846-0.761-11.798c2.002-1.297,1.94-4.657,3.045-6.852c-0.669-0.219-2.236,0.46-2.284-0.38
		c-0.551-1.439,1.046-0.73,0.761-1.903c-1.231-0.471-0.291,1.231-1.522,0.761c-0.365,1.158,0.815,3.86-0.761,3.807
		c1.174,8.728-2.471,17.596-0.761,25.5c-1.311-0.296-1.818,0.212-1.522,1.522c0.933-0.336,1.396-1.141,3.045-0.762
		C101.535,108.122,100.183,108.459,100.708,106.918z M102.231,81.418c1.375-0.36,0.531,1.499,0.761,2.283
		C101.617,84.062,102.461,82.202,102.231,81.418z"/>
	<path fill="#FFFFFF" d="M78.253,17.478c-0.365-1.158,0.815-3.86-0.761-3.807C77.857,14.829,76.677,17.531,78.253,17.478z"/>
	<path fill="#FFFFFF" d="M78.253,47.545c0.884-0.258,1.598-0.686,1.522-1.903c-0.599-0.29-0.569-1.207-1.522-1.142
		C78.253,45.515,78.253,46.529,78.253,47.545z"/>
	<path fill="#FFFFFF" d="M82.82,26.611c0.507,0,1.015,0,1.522,0c0-0.507,0-1.015,0-1.522c-1.541,0.526-1.204-0.826-2.284-0.761
		C81.994,25.408,83.346,25.071,82.82,26.611z"/>
	<path fill="#FFFFFF" d="M78.253,25.089c-0.087-0.674,0.383-1.905-0.761-1.522c0.47,1.232-1.232,0.291-0.761,1.522
		C77.238,25.089,77.746,25.089,78.253,25.089z"/>
	<path fill="#FFFFFF" d="M84.343,113.008c0.85-0.166,1.357-0.673,1.522-1.522c-0.507,0-1.015,0-1.522,0
		C84.343,111.992,84.343,112.5,84.343,113.008z"/>
	<path fill="#FFFFFF" d="M63.41,46.783c-0.421-1.608,0.896-4.956-0.761-5.328C63.07,43.063,61.752,46.411,63.41,46.783z"/>
	<path fill="#FFFFFF" d="M78.253,54.396c-0.043,0.464-0.114,0.901-0.761,0.761c0,0.762,0,1.522,0,2.284
		C78.206,57.175,79.992,54.661,78.253,54.396z"/>
	<path fill="#FFFFFF" d="M77.492,80.656c0-0.507,0-1.015,0-1.522c-0.508,0-1.015,0-1.522,0
		C75.674,80.444,76.182,80.952,77.492,80.656z"/>
	<path fill="#FFFFFF" d="M80.537,97.783c1.122-0.146,0.873-1.664,1.522-2.283c-0.507,0-1.015,0-1.522,0
		C80.537,96.261,80.537,97.022,80.537,97.783z"/>
	<path fill="#FFFFFF" d="M82.059,89.41c0.065,1.08-1.287,0.743-0.761,2.284c0.508,0,1.015,0,1.522,0
		C82.59,90.909,83.435,89.05,82.059,89.41z"/>
	<path fill="#FFFFFF" d="M77.492,59.724c-0.043,0.465-0.114,0.901-0.761,0.762c-0.325,1.213,0.332,1.444,0.761,1.902
		c-1.074,1.278-1.671,8.465,0.38,9.135c0.66-3.865,0.466-8.816,1.142-10.657C78.416,60.576,78.446,59.658,77.492,59.724z"/>
	<path fill="#FFFFFF" d="M79.776,51.351c-0.777,0.746-1.538,1.507-2.284,2.283C79.136,53.756,79.898,52.995,79.776,51.351z"/>
	<path fill="#FFFFFF" d="M64.171,10.246c0.506,4.925-0.295,14.505-0.761,20.933c1.591-0.646,2.083-3.994,0.761-5.328
		c2.919-5.041-0.292-8.992,1.522-15.224C64.974,10.712,64.854,10.197,64.171,10.246z"/>
	<path fill="#FFFFFF" d="M82.059,61.246c0,0.635,0,1.269,0,1.903C83.229,63.731,83.229,60.664,82.059,61.246z"/>
	<path fill="#FFFFFF" d="M83.582,106.157c0,1.269,0,2.537,0,3.806c1.541-0.526,1.204,0.826,2.284,0.761
		c1.031-2.382,0.172-2.573,0-5.328C84.324,104.87,84.662,106.222,83.582,106.157z"/>
	<path fill="#FFFFFF" d="M84.343,49.067c-1.541,0.525-1.204-0.826-2.284-0.762c1.975,2.221-0.659,4.392,0,7.612
		c1.606,0.591-0.083-2.113,1.522-1.522C82.513,53.313,83.74,50.701,84.343,49.067z"/>
	<path fill="#FFFFFF" d="M81.298,106.918c0-0.508,0-1.015,0-1.522c-0.507,0-1.015,0-1.522,0
		C79.941,106.245,80.449,106.753,81.298,106.918z"/>
	<path fill="#FFFFFF" d="M75.208,127.09c1.382,1.419-0.417,1.422,0,3.806c1.112-0.664,1.636-1.916,1.522-3.806
		C76.223,127.09,75.716,127.09,75.208,127.09z"/>
	<path fill="#FFFFFF" d="M69.5,4.918c-0.507,0-1.015,0-1.522,0c0.142,7.343-0.49,15.46,0.761,21.693
		c0.85-0.165,1.357-0.673,1.522-1.522c-0.788-3.071-0.346-5.079,0-7.992C69.097,12.628,68.004,9.402,69.5,4.918z"/>
	<path fill="#FFFFFF" d="M76.731,82.179c-0.006,2.023,0.276,4.337-0.761,5.329C78.479,88.38,77.828,82.419,76.731,82.179z"/>
	<path fill="#FFFFFF" d="M86.626,88.269c1.211-1.074-0.74-4.574,0-7.612c-1.733,0.297-0.787,3.273-2.284,3.807
		c1.167,1.487,1.167,6.505,0,7.992c2.694,0.665,0.704-3.356,3.045-3.045c0,0.254,0,0.508,0,0.762
		c-1.129,1.662-1.303,4.278-1.522,6.851c-0.674,0.087-1.906-0.384-1.522,0.761c1.603,0.682-0.245,4.813,1.522,5.329
		c3.008-2.447,0.314-10.597,2.284-14.082C88.421,87.996,86.354,89.302,86.626,88.269z"/>
	<path fill="#FFFFFF" d="M86.626,129.373c0.85-0.165,1.357-0.673,1.522-1.522c-0.508,0-1.015,0-1.522,0
		C86.626,128.358,86.626,128.866,86.626,129.373z"/>
	<path fill="#FFFFFF" d="M86.626,51.351c0.009,1.767,1.279,2.273,0.761,4.567c0.507,0,1.015,0,1.522,0
		c0.526-1.541-0.826-1.204-0.761-2.284c1.491-0.538,2.028-2.031,2.283-3.806C88.148,49.319,88.911,51.859,86.626,51.351z"/>
	<path fill="#FFFFFF" d="M86.626,61.246c0.507,0,1.015,0,1.522,0c-0.225-1.747,0.118-2.927,0.761-3.806
		C86.561,57.12,86.473,59.063,86.626,61.246z"/>
	<path fill="#FFFFFF" d="M146.761,82.94c0-0.508,0-1.015,0-1.522c-0.508,0-1.015,0-1.522,0
		C144.943,82.729,145.451,83.235,146.761,82.94z"/>
	<path fill="#FFFFFF" d="M142.194,14.433c-1.541,0.525-1.204-0.826-2.284-0.762c0.75,1.026,0.746,2.808,2.284,3.045
		C142.194,15.955,142.194,15.193,142.194,14.433z"/>
	<path fill="#FFFFFF" d="M142.955,69.238c-0.336,0.933-1.141,1.396-0.761,3.045C143.429,72.54,144.699,69.51,142.955,69.238z"/>
	<path fill="#FFFFFF" d="M145.239,84.463c-0.146,4.041,0.495,8.867-0.761,11.798c1.941-0.418-0.419,3.464,1.522,3.045
		c0.225-1.747-0.118-2.927-0.761-3.806c2.077-1.855-0.497-8.362,1.522-10.276C145.529,85.694,146.47,83.992,145.239,84.463z"/>
	<path fill="#FFFFFF" d="M139.149,48.306c-0.365,1.157,0.815,3.86-0.761,3.806c0.649,0.619,0.401,2.137,1.522,2.284
		c0.23-0.785-0.614-2.645,0.761-2.284c-0.868-1.104-0.868-1.94,0-3.044C139.44,49.537,140.38,47.835,139.149,48.306z"/>
	<path fill="#FFFFFF" d="M130.776,126.328c0.85-0.165,1.357-0.673,1.522-1.522c-0.761,0-1.522,0-2.284,0
		C129.544,126.038,131.246,125.097,130.776,126.328z"/>
	<path fill="#FFFFFF" d="M133.06,27.373c-0.043,0.464-0.114,0.901-0.761,0.761c0.166,0.85,0.673,1.357,1.522,1.522
		C133.59,28.872,134.435,27.013,133.06,27.373z"/>
	<path fill="#FFFFFF" d="M88.149,73.806c-0.905-1.379-0.164-4.403-1.522-5.328c-0.467,1.817-1.083,3.484-0.761,6.09
		C87.231,73.961,86.47,72.363,88.149,73.806z"/>
	<path fill="#FFFFFF" d="M130.776,121.762c0.85-0.166,1.357-0.674,1.522-1.522c-0.508,0-1.015,0-1.522,0
		C130.776,120.746,130.776,121.254,130.776,121.762z"/>
	<path fill="#FFFFFF" d="M151.708,76.09c0.087,0.674-0.383,1.905,0.761,1.522c3.715-1.991-0.131-9.724,1.522-12.18
		c-2.261,0.276-0.919,4.155-3.044,4.567c1.816,1.597-0.64,3.385,0.761,4.567c-1.089,0.433-1.851,1.194-2.283,2.283
		C150.505,76.916,150.168,75.563,151.708,76.09z"/>
	<path fill="#FFFFFF" d="M153.992,43.738c0.464-0.043,0.901-0.113,0.761-0.761c-2.032-0.256-0.778,2.773-2.284,3.045
		c-0.47,1.231,1.232,0.291,0.761,1.522c-1.231-0.471-0.291,1.231-1.522,0.761c1.603,3.426-0.17,9.064,0.761,11.418
		c-1.231,0.471-0.291-1.231-1.522-0.761c-0.166,0.849-0.673,1.356-1.522,1.522c0.285,1.871,2.429,1.884,2.283,4.187
		c1.458,0.188,2.014-0.524,2.284-1.522c-1.374-3.54,0.323-9.889,1.522-13.321c-0.965-1.002-0.965-2.804,0-3.806
		C154.393,45.875,154.642,44.357,153.992,43.738z M152.47,62.388c-0.683,0.049-0.802-0.466-1.522-0.381
		c-0.471-1.231,1.231-0.29,0.761-1.521C152.988,60.094,152.301,61.669,152.47,62.388z"/>
	<path fill="#FFFFFF" d="M153.992,31.94c-0.687,3.542-0.894,3.905-1.522,6.47c1.08-0.064,0.743,1.287,2.284,0.761
		c-0.558-2.968,1.22-3.602,0.761-6.47C154.283,33.172,155.224,31.47,153.992,31.94z"/>
	<path fill="#FFFFFF" d="M159.321,36.888c0-0.634,0-1.269,0-1.903c-0.508,0-1.015,0-1.522,0
		C158.222,35.703,158.333,36.733,159.321,36.888z"/>
	<path fill="#FFFFFF" d="M152.47,91.694c1.318-0.712,1.406-2.654,2.284-3.807c-1.697,0.049-2.025-1.273-3.806-1.142
		C151.235,88.615,153.205,88.802,152.47,91.694z"/>
	<path fill="#FFFFFF" d="M129.253,88.649c-0.678,1.352-0.287,3.772-1.522,4.567c0.965,1.002,0.965,2.804,0,3.806
		c0.507,0,1.015,0,1.522,0C128.844,94.259,131.486,90.724,129.253,88.649z"/>
	<path fill="#FFFFFF" d="M146,66.955c0.905,2.393-2.628,5.262,0.381,6.09c0.651-1.379,0.253-3.807,1.142-4.948
		C146.924,67.808,146.954,66.89,146,66.955z"/>
	<path fill="#FFFFFF" d="M151.708,81.418c1.122-0.147,0.873-1.665,1.522-2.284c-1.541,0.526-1.204-0.825-2.283-0.761
		C150.445,80.144,152.211,79.646,151.708,81.418z"/>
	<path fill="#FFFFFF" d="M127.731,99.306c0.23,0.785-0.614,2.645,0.761,2.284C128.262,100.805,129.106,98.945,127.731,99.306z"/>
	<path fill="#FFFFFF" d="M155.515,27.373c0-0.508,0-1.015,0-1.522c-0.507,0-1.015,0-1.522,0
		C153.697,27.161,154.204,27.668,155.515,27.373z"/>
	<path fill="#FFFFFF" d="M168.455,57.44c-0.087-0.675,0.384-1.906-0.761-1.522c0.47,1.231-1.231,0.291-0.761,1.522
		C167.44,57.44,167.948,57.44,168.455,57.44z"/>
	<path fill="#FFFFFF" d="M118.977,40.693c-1.231-0.47-0.291,1.232-1.522,0.762c-0.043-0.465-0.114-0.901-0.761-0.762
		c0,0.762,0,1.522,0,2.284c1.312-0.044,0.971,1.565,2.283,1.522c-0.526-1.541,0.826-1.204,0.761-2.284
		C120.209,40.984,118.507,41.926,118.977,40.693z"/>
	<path fill="#FFFFFF" d="M173.022,10.627c-0.342-1.054,0.782-3.573-0.761-3.426C172.603,8.255,171.479,10.774,173.022,10.627z"/>
	<path fill="#FFFFFF" d="M116.694,45.261c0.551,3.597-0.847,5.242-0.761,8.373c1.541-0.525,1.204,0.826,2.284,0.762
		c1.575-1.821-0.179-4.871-0.761-6.851c0.994,0.105,1.904,0.128,1.522-1.143C118.235,46.004,117.457,45.64,116.694,45.261z"/>
	<path fill="#FFFFFF" d="M116.694,66.955c0.47,1.231-1.231,0.291-0.761,1.522c0.507,0,1.015,0,1.522,0
		C117.368,67.803,117.838,66.571,116.694,66.955z"/>
	<path fill="#FFFFFF" d="M116.694,66.194c0.849-0.166,1.357-0.674,1.522-1.522c-0.508,0-1.015,0-1.522,0
		C116.694,65.179,116.694,65.687,116.694,66.194z"/>
	<path fill="#FFFFFF" d="M130.776,77.612c-0.23-0.785,0.614-2.645-0.761-2.284C130.245,76.113,129.4,77.973,130.776,77.612z"/>
	<path fill="#FFFFFF" d="M119.738,34.984c-0.507,0-1.015,0-1.522,0c0,1.143,0,2.284,0,3.426
		C119.255,37.8,119.773,36.669,119.738,34.984z"/>
	<path fill="#FFFFFF" d="M128.492,67.716c-0.23-0.784,0.614-2.644-0.761-2.283c-0.043,0.465-0.114,0.901-0.761,0.762
		C127.135,67.043,127.643,67.551,128.492,67.716z"/>
	<path fill="#FFFFFF" d="M153.992,30.418c0.85-0.166,1.357-0.673,1.522-1.522c-0.507,0-1.015,0-1.522,0
		C153.992,29.402,153.992,29.91,153.992,30.418z"/>
	<path fill="#FFFFFF" d="M128.492,107.679c0-0.507,0-1.015,0-1.521c-0.507,0-1.015,0-1.522,0
		C127.135,107.006,127.643,107.514,128.492,107.679z"/>
	<path fill="#FFFFFF" d="M142.955,3.396c-0.087-0.675,0.383-1.906-0.761-1.522c0.47,1.231-1.231,0.291-0.761,1.522
		C141.94,3.396,142.448,3.396,142.955,3.396z"/>
	<path fill="#FFFFFF" d="M150.948,52.111c-0.365-1.157,0.815-3.859-0.761-3.806C150.551,49.463,149.371,52.166,150.948,52.111z"/>
	<path fill="#FFFFFF" d="M146.761,28.134c-0.508,0-1.015,0-1.522,0c0,1.522,0,3.045,0,4.567
		C146.474,31.906,146.083,29.486,146.761,28.134z"/>
	<path fill="#FFFFFF" d="M253.709,132.418c0,0.254,0,0.508,0,0.762h0.793C254.536,132.629,254.45,132.195,253.709,132.418z"/>
	<path fill="#FFFFFF" d="M109.082,130.896c-1.377-0.936,1.489-4.996-1.142-6.09c-2.046,0.111-0.161,4.153-1.903,4.567
		c0.92,0.905,0.977,2.63,0.404,3.807h1.99c-0.202-0.597-0.476-1.12-0.872-1.522C107.176,130.512,108.407,130.982,109.082,130.896z"
		/>
	<path fill="#FFFFFF" d="M61.126,113.008c2.502-3.042-0.948-9.852,0.761-12.18c-2.565-2.971-0.337-9.177-2.284-14.082
		c-0.356,2.055-0.738,4.083-1.522,5.709c1.449,1.47,0.487,5.35,1.522,7.231c-0.359,0.782-1.497,0.786-1.522,1.903
		c1.272,3.876-0.099,6.8,0.761,11.798c-0.507,0-1.015,0-1.522,0c1.483,7.286,1.521,13.525,1.188,19.792h4.901
		C61.533,126.04,63.528,118.51,61.126,113.008z"/>
	<path fill="#FFFFFF" d="M0.23,97.783C0.147,97.937,0.076,98.102,0,98.261v34.919h0.992c-0.835-3.351,0.57-10.425,1.522-14.463
		c-0.162-3.985-0.577-10.05,0-13.321c-0.85-0.165-1.357-0.673-1.522-1.522c0.507,0,1.015,0,1.522,0
		c-2.788-3.861-0.728-9.892,0-15.985c-0.72,0.086-0.84-0.429-1.522-0.38c-0.084,0.296-0.319,0.442-0.761,0.38
		c0.201,2.591-0.578,6.16,0.761,7.612c-0.331,0-0.661,0-0.992,0v1.619C0.142,97.275,0.25,97.466,0.23,97.783z"/>
	<path fill="#FFFFFF" d="M43.832,133.18h0.936c-0.057-1.468-0.574-2.475-1.529-3.045c-0.038,2.009,1.218,1.59,0,3.045
		C43.558,133.058,43.729,133.085,43.832,133.18z"/>
	<path fill="#FFFFFF" d="M13.932,3.396c1.541,0.525,1.204-0.826,2.284-0.762c-0.54-0.595-0.408-1.509-0.2-2.634h-1.961
		C13.83,0.948,13.688,1.979,13.932,3.396z"/>
	<path fill="#FFFFFF" d="M48.186,127.851c-0.84-1.316-0.946-3.367-1.903-4.566c-0.884,1.146-0.688,3.37-3.044,3.044
		c-0.487,2.01,1.454,1.591,1.522,3.045c1.231,0.471,0.291-1.231,1.522-0.761c0,0.507,0,1.015,0,1.522
		c-0.674,0.087-1.906-0.384-1.522,0.761c2.176-0.233,1.811,1.12,1.66,2.284h1.09C47.565,131.232,46.718,128.385,48.186,127.851z"/>
	<path fill="#FFFFFF" d="M15.455,124.806c1.52-15.538-1.712-37.404,0-51c-1.459-0.57,0.141-4.201-1.522-4.567
		c-0.245,2.505-1.745,6.228,0,8.374c-0.507,0-1.015,0-1.522,0c0.578,4.404-0.509,5.925,0.761,9.134
		c-1.67,0.487-0.331,3.982-0.761,5.709c-0.507,0-1.015,0-1.522,0c1.782,5.721,0.431,10.047,1.522,14.082
		c-1.153,7.795,0.17,17.561,0.799,26.643h2.446C15.81,130.372,15.82,127.58,15.455,124.806z"/>
	<path fill="#FFFFFF" d="M130.395,129.373c-0.277,1.06-0.552,2.374-0.776,3.807h1.146c0.069-0.949,0.273-1.765,0.771-2.284
		C131.603,129.942,130.685,129.972,130.395,129.373z"/>
	<path fill="#FFFFFF" d="M158.56,10.246c0,2.41,0,4.82,0,7.231c1.257-1.153,0.842-3.979,1.522-5.709
		C159.206,11.63,159.718,10.103,158.56,10.246z"/>
	<path fill="#FFFFFF" d="M292.149,127.471c1.193-0.076,0.318-2.22,1.143-2.665c1.168,0.828-0.118,2.39-0.381,3.045
		c1.231-0.47,0.291,1.231,1.522,0.762c0.351-6.952-0.36-11.172,1.522-15.604c-0.953,0.065-0.924-0.853-1.522-1.142
		c0.163-0.598,1.197-0.326,0.761-1.522c-1.096-0.046-0.196-2.087-1.521-1.903c0.379,1.648-0.426,2.112-0.762,3.045
		c1.266-0.469,0.932,2.572,0.381,2.664c-0.6-0.034-0.298-0.971-1.143-0.762c0.065,1.08-1.287,0.743-0.761,2.284
		c0.669,0.219,2.236-0.46,2.284,0.381c-0.061,0.447,0.064,1.08-0.381,1.142c-0.459-0.43-0.689-1.087-1.903-0.762
		c0,1.269,0,2.537,0,3.807c1.08,0.064,0.743-1.287,2.284-0.762c-0.239,1.157,0.486,3.278-0.381,3.807
		c-0.6-0.035-0.298-0.972-1.143-0.762c-0.086,0.675,0.385,1.906-0.761,1.522c0.914,1.315,0.188,5.813-0.761,7.612
		c0.125,0.484,0.223,0.994,0.307,1.522h2.266C293.321,131.261,293.087,129.362,292.149,127.471z"/>
	<path fill="#FFFFFF" d="M288.344,124.045c-0.57-0.064-1.405,0.136-1.523-0.381c0.854-0.03,1.469-3.513,0-3.425
		c-0.254,2.901-1.703,7.429-0.761,9.134c-1.231-0.47-0.291,1.231-1.522,0.762c0.661,0.697,0.646,1.8,0.459,3.045h1.693
		C287.852,130.369,286.481,127.349,288.344,124.045z"/>
	<path fill="#FFFFFF" d="M180.253,121.762c1.595-0.517,0.728-4.647,0-5.329c0.885-0.257,1.599-0.685,1.522-1.902
		c-0.359-0.782-1.497-0.787-1.522-1.903c-0.319-1.715,1.544-1.247,1.522-2.664c-0.569-0.065-1.404,0.136-1.522-0.381
		c1.411,0.016-0.049-2.84,1.522-2.664c-1.387-1.424-0.105-1.943,0-3.806c-1.605-0.591,0.084,2.113-1.522,1.522
		c0.48-3.565,3.86-7.48,1.522-11.418c1.49-1.787-0.473-2.366,0.762-4.187c-4.098-3.257,1.881-11.059-0.762-15.225
		c-0.284-1.173,1.313-0.464,0.762-1.902c-0.359-0.782-1.498-0.787-1.523-1.903c1.139-1.252,1.139-5.6,0-6.851
		c1.244-0.152,0.68-2.112,1.523-2.664c-1.326,0.184-0.427-1.857-1.523-1.903c1.665-5.821,1.592-13.379,1.523-20.933
		c-1.232-0.471-0.291,1.231-1.523,0.761c-0.178,11.114-0.861,18.009-0.761,30.067c-1.312,0.716-0.972,0.716-2.283,0
		c0,2.791,0,5.582,0,8.373c0.669,0.219,2.235-0.46,2.283,0.381c-0.384,1.9-0.735,3.831-1.142,5.709
		c-0.6-0.034-0.298-0.971-1.142-0.762c-1.034,4.92-0.069,10.182,0,17.127c1.679,0.537,0.006-2.277,1.142-2.283
		c0.381,0,0.762,0,1.142,0c-0.908,2.137-0.835,5.254-0.761,8.373c-0.785,0.23-2.645-0.614-2.284,0.762
		c0.453,1.514,2.239,1.53,0.761,3.044c1.231,0.471,0.291-1.231,1.522-0.761c0.225,1.747-0.118,2.927-0.761,3.806
		c1.25,0.505,1.25,5.966,0,6.471c1.72,1.833,0.136,4.598-0.761,6.089c0.674,0.087,1.905-0.383,1.522,0.762c-0.508,0-1.015,0-1.522,0
		c-0.436,3.519,1.027,4.607,0,6.851c1.39-0.459,1.305,0.557,2.03,0.762h0.634C183.139,130.724,181.337,124.267,180.253,121.762z
		 M178.731,96.261c0-1.015,0-2.029,0-3.044c1.232-0.471,0.291,1.231,1.522,0.761C179.604,94.597,179.852,96.114,178.731,96.261z"/>
	<path fill="#FFFFFF" d="M166.171,125.567c-0.35,1.885-0.423,4.697-0.292,7.612h1.488C167.86,130.1,168.119,127.339,166.171,125.567
		z"/>
	<path fill="#FFFFFF" d="M205.754,130.515c0.019-1.415-1.285-1.507-0.762-3.425c-0.879,0.643-2.059,0.985-3.807,0.761
		c0.131,1.799,0.268,3.571,0.398,5.329h2.01C204.059,132.037,205.416,131.784,205.754,130.515z"/>
	<path fill="#FFFFFF" d="M24.969,16.336c-0.551,1.438,1.046,0.729,0.761,1.902c-2.065,3.517,0.543,11.708-1.522,15.225
		c0.5,5.958,0.703,15.162,0,22.455c-0.27,2.794-2.147,6.119,0.38,7.992c1.318-0.965-0.787-5.354,1.142-5.709
		c-0.996-16.244,3.318-33.708,3.806-51c0.529-0.866,0.753-2.038,1.522-2.664C30.804,3.072,30.71,1.555,30.705,0h-3.223
		c-0.325,2.42-0.659,4.823-0.99,7.201C26.08,10.156,25.849,13.528,24.969,16.336z"/>
	<path fill="#FFFFFF" d="M281.493,121.762c-1.825-0.684-1.227,1.057-1.902,1.522c-0.448-0.06-1.081,0.064-1.143-0.381
		c0.661-0.988,1.949-1.351,2.283-2.664c-1.313,0.066-1.675,2.572-2.664,0.761c-0.086,0.675,0.385,1.906-0.761,1.522
		c1.249,3.333,0.58,7.589,0.179,10.657h4.602C282.07,129.74,282.325,125.179,281.493,121.762z"/>
	<path fill="#FFFFFF" d="M346.826,0h-0.631c0,0.117,0,0.233,0,0.351C346.484,0.313,346.68,0.182,346.826,0z"/>
	<path fill="#FFFFFF" d="M312.321,4.156c-1.197-1.152-0.543-3.094,0.762-3.806c-0.051-0.108-0.09-0.229-0.128-0.351h-1.983
		c-0.117,1.868-0.42,3.853-0.934,4.918C311.579,5.443,311.242,4.092,312.321,4.156z"/>
	<path fill="#FFFFFF" d="M285.299,19.38c0.286-1.362,1.167-2.131,0.761-4.187c-1.606-0.591,0.083,2.113-1.522,1.522
		c1.18,1.475-0.604,2.235,0.762,4.187c-0.6,0.29-0.569,1.208-1.523,1.143c1.383,1.418-0.416,1.421,0,3.806c0.508,0,1.016,0,1.523,0
		c0.242-1.406-0.493-3.791,0.38-4.567c0.381,0,0.761,0,1.142,0c-0.861,11.151-0.79,18.996-2.664,30.067
		c-3.17-7.143,1.855-14.159,0.381-23.217c-3.435,0.904,0.943,4.979-2.283,6.09c0.268,1.116,1.277,1.121,0,1.903
		c0.685-0.049,0.889,0.377,0.761,1.142c-1.103,6.604-1.885,17.626-2.284,23.217c-0.47,1.231,1.232,0.29,0.762,1.521
		c-2.053-0.149,0.531,4.338-1.522,4.188c1.626,1.566-0.628,2.475,0.761,3.806c-1.54-0.526-1.203,0.826-2.283,0.761
		c0.025,1.117,1.163,1.121,1.522,1.903c-0.359,0.782-1.497,0.786-1.522,1.903c1.458-0.189,2.014,0.523,2.283,1.522
		c-1.031,0.985-1.031,3.581,0,4.566c-1.576-0.054-0.396,2.648-0.761,3.807c-0.507,0-1.015,0-1.522,0
		c-0.325,1.954-0.398,3.527,0.762,4.947c-1.756,0.147-0.021,3.785-1.903,3.807c1.657,1.332,0.495,3.381,1.142,5.328
		c1.605,0.591-0.083-2.113,1.522-1.522c0,0.761,0,1.522,0,2.283c-0.634,0-1.269,0-1.903,0c0.584,7.78-1.047,13.361,0.381,20.172
		c1.205-0.697,0.307-3.499,1.143-4.567c0.873,0.776,0.137,3.161,0.38,4.567c3.368-1.971,2.046-9.132,2.665-11.799
		c0.781,0.36,0.786,1.497,1.902,1.522c-0.285-1.172,1.313-0.464,0.762-1.902c-0.271-1.252-2.167-0.879-3.045-1.522
		c1.316-2.001-0.074-2.367,0-4.948c0.748,0.114,0.754-0.514,1.142-0.761c0.458,0.43,0.689,1.086,1.903,0.761
		c0.525-1.541-0.826-1.203-0.762-2.283c1.506-0.271,0.252-3.301,2.283-3.045c-0.715-1.313-0.715-0.972,0-2.283
		c-1.999,0.086-1.852-3.97-1.142-5.329c0.601,0.035,0.298,0.971,1.142,0.762c-0.656-1.5-2.033-2.28-1.521-4.948
		c1.23,0.471,0.291-1.231,1.521-0.761c-0.201-2.551-1.609-4.791,0.762-6.09c-0.615-1.414-1.26-2.8-1.522-4.567
		c-0.761,0-1.522,0-2.284,0c-0.086,0.675,0.385,1.906-0.761,1.522c0-0.761,0-1.522,0-2.283c2.375,0.599,1.108-2.444,3.045-2.284
		c0.38-1.647-0.425-2.111-0.761-3.044c2.533-1.907,1.508-7.373,3.045-10.276c-1.361,0.196-0.871-3.414-0.381-3.807
		c1.135,0.007-0.537,2.821,1.142,2.284c0.253,0,0.507,0,0.761,0c0.012-2.295-1.59-2.977-2.283-4.567c0.508,0,1.015,0,1.522,0
		c-0.025-1.116-1.163-1.121-1.522-1.903c2.156-0.902-1.252-2.759,0.381-4.187c0.6,0.035,0.297,0.971,1.142,0.762
		c-2.622-3.337,0.71-9.768-1.522-14.463c0.995-2.267,4.221-5.195,2.283-7.992c0.85-0.166,1.357-0.674,1.522-1.522
		c-0.675-0.087-1.905,0.383-1.522-0.762c0.675-0.087,1.906,0.384,1.522-0.761c-1.032-2.013-0.901-5.188-1.522-7.612
		c0.85-0.165,1.357-0.673,1.522-1.522c-1.344-2.764,0.037-6.385,0.856-9.865h-2.932c-0.895,6.649-1.702,13.387-2.111,20.522
		C287.059,19.649,285.68,20.015,285.299,19.38z M283.776,52.111c1.576-0.054,0.396,2.648,0.762,3.807
		C282.961,55.972,284.141,53.27,283.776,52.111z M283.776,78.373c-0.869,0.906-0.856,2.695-0.761,4.567
		c-1.122-0.147-0.873-1.665-1.522-2.284C281.926,79.567,282.687,78.806,283.776,78.373z M283.776,99.306c-0.507,0-1.015,0-1.521,0
		c-0.526-1.541,0.826-1.203,0.761-2.283C284.391,96.662,283.545,98.521,283.776,99.306z M283.776,90.933
		c-1.375,0.36-0.53-1.499-0.761-2.283C284.391,88.289,283.545,90.148,283.776,90.933z M283.776,74.567
		c-0.867,1.104-0.867,1.94,0,3.045c-0.507,0-1.015,0-1.521,0c0-0.762,0-1.522,0-2.284C283.486,75.799,282.545,74.097,283.776,74.567
		z M284.538,66.194c-0.869,0.906-0.857,2.695-0.762,4.566c-1.188-2.491-1.527-5.83-1.521-9.515c0.507,0,1.015,0,1.521,0
		c0.385-1.145-0.848-0.675-1.521-0.761c0.773-1.003,0.748-2.805,1.521-3.807C286.583,58.97,281.915,64.087,284.538,66.194z"/>
	<path fill="#FFFFFF" d="M87.388,63.149c0-0.381,0-0.762,0-1.143c-0.72-0.085-0.84,0.43-1.522,0.381
		C85.481,63.532,86.713,63.063,87.388,63.149z"/>
	<path fill="#FFFFFF" d="M275.784,7.201c-0.378,0.764-0.742,1.541-1.142,2.283c-0.601-0.034-0.298-0.971-1.142-0.761
		c0,0.888,0,1.776,0,2.664c0.569,0.064,1.404-0.136,1.521,0.381c-0.059,0.447,0.066,1.08-0.38,1.142
		c-0.601-0.034-0.298-0.971-1.142-0.762c0.332,1.698,1.63,2.431,2.283,3.807c-0.063-2.347,0.922-3.646,1.522-5.328
		c-2.335-2.469,0.736-8.581-0.761-10.276c0.097-0.113,0.18-0.232,0.266-0.351h-0.989C275.424,2.771,275.381,5.7,275.784,7.201z"/>
	<path fill="#FFFFFF" d="M356.471,133.18c0-0.762,0-1.522,0-2.284c-0.635,0-1.27,0-1.903,0
		C354.219,132.64,355.619,132.636,356.471,133.18z"/>
	<path fill="#FFFFFF" d="M355.709,130.135c0.254,0,0.508,0,0.762,0v-1.2c-0.217-0.146-0.459-0.264-0.762-0.322
		C355.709,129.119,355.709,129.627,355.709,130.135z"/>
	<path fill="#FFFFFF" d="M183.298,34.224c1.317-4.975-0.396-8.334,0.761-13.321c0.354-1.495-1.322-0.96-0.761-2.664
		c1.505-4.961,0.377-12.557,1.162-18.238h-1.713c-1.713,10.192,0.366,23.018-2.494,33.463
		C181.186,33.799,181.65,34.604,183.298,34.224z"/>
	<path fill="#FFFFFF" d="M117.455,16.716c0,1.016,0,2.03,0,3.045c-0.844,0.21-0.542-0.727-1.142-0.761
		c-0.825-0.064-0.172,1.35-0.38,1.902c0.637,0.505,0.811,1.473,2.284,1.143c0.26,3.305-0.586,5.503-3.045,6.089
		c0.336,0.933,1.141,1.396,0.761,3.045c1.679,0.156,0.917-2.127,2.284-2.283c-0.256,1.773-1.184,2.876-0.761,5.328
		c0.634,0,1.269,0,1.903,0c0.221-2.626,2.184-6.084,0.38-8.373c2.71-5.221-0.097-9.412,2.284-15.224
		c0.272-1.034-1.794,0.271-1.522-0.762c-0.162-1.938,2.178-1.374,1.522-3.806c0.272-1.034-1.794,0.272-1.522-0.762
		c0.323-1.072,0.502-2.289,1.522-2.664c-0.101-0.901-0.128-1.774-0.126-2.634h-4.936c-0.701,4.53-0.519,11.138-1.027,15.955
		C115.549,17.1,116.78,16.629,117.455,16.716z"/>
	<path fill="#FFFFFF" d="M105.276,1.111c-0.093-0.284-0.065-0.689-0.02-1.111h-1.368C104.125,0.597,104.579,0.976,105.276,1.111z"/>
	<path fill="#FFFFFF" d="M87.388,4.918c-0.167,3.75-0.817,5.293,0,9.134c0.118,0.517,0.953,0.315,1.522,0.381
		c0.383,1.145-0.848,0.675-1.522,0.761c-0.117,2.02-0.128,3.935,1.903,3.807c0.813-2.866,0.556-6.803,1.903-9.135
		c-0.779-0.743-0.897-2.147-2.284-2.283c0.28-1.715,1.023-1.247,0-2.664c-0.361-1.376,1.499-0.531,2.284-0.762
		c-0.77-1.021-1.139-2.495-1.24-4.156h-2.912c-0.215,1.036-0.385,2.045-0.416,3.015C86.606,3.653,87.416,4.292,87.388,4.918z"/>
	<path fill="#FFFFFF" d="M248,1.111c-0.178-0.281-0.289-0.664-0.35-1.111h-1.672c-0.064,0.352-0.146,0.718-0.263,1.111
		C246.478,1.111,247.239,1.111,248,1.111z"/>
	<path fill="#FFFFFF" d="M39.432,31.94c-1.312-0.044-0.971,1.565-2.284,1.522c2.801,3.955,1.276,9.182,0,12.939
		c-0.064,0.826,1.35,0.173,1.903,0.381c0.985-2.44,0.505-6.346,1.903-8.373c-1.473-7.911,3.215-20.044,1.522-28.164
		C42.643,9.396,43.15,8.889,44,8.724C43.908,5.643,43.917,2.76,43.971,0h-2.59c-0.375,4.77-0.724,9.615-1.188,14.433
		C39.548,21.127,38.522,26.504,39.432,31.94z"/>
	<path fill="#FFFFFF" d="M271.217,1.873c0-0.625,0-1.249,0-1.873h-1.547C269.659,1.15,270.319,1.63,271.217,1.873z"/>
	<path fill="#FFFFFF" d="M207.276,0.351c0.314,0.955-0.74,3.277,0.762,3.045c-0.384-1.699,0.213-2.419,0.551-3.396h-0.553
		C208.007,0.342,207.862,0.566,207.276,0.351z"/>
	<path fill="#FFFFFF" d="M355.764,0h-0.495c0.048,1.183,0.188,2.104,0.44,2.253C355.537,1.506,355.606,0.748,355.764,0z"/>
	<path fill="#FFFFFF" d="M58.843,15.193c0,0.762,0,1.522,0,2.284c0.85-0.166,1.357-0.673,1.522-1.522
		C59.133,16.425,60.074,14.724,58.843,15.193z"/>
	<path fill="#FFFFFF" d="M102.231,27.373c1.366-0.606,0.604-2.204,2.284-0.762c0-0.507,0-1.015,0-1.522c-0.761,0-1.522,0-2.284,0
		C102.231,25.851,102.231,26.611,102.231,27.373z"/>
	<path fill="#FFFFFF" d="M102.992,20.522c-0.643,0.879-0.986,2.059-0.761,3.806C103.723,24.633,104.65,20.896,102.992,20.522z"/>
	<path fill="#FFFFFF" d="M102.992,18.238c0.507,0,1.015,0,1.522,0c0.631-1.55-1.813-1.952-0.381-3.045
		c0.6,0.035,0.298,0.971,1.142,0.762c0.417-2.385-1.382-2.388,0-3.807c-1.279,0.392-0.593-1.184-0.761-1.902
		c-1.866-0.471-0.921,1.87-2.284,1.902c0.868,1.104,0.868,1.941,0,3.045C103.732,14.961,102.679,17.283,102.992,18.238z"/>
	<path fill="#FFFFFF" d="M55.798,69.238c-0.365,1.158,0.815,3.86-0.761,3.807c0.134,1.575,1.398,4.46,0,6.851
		c1.674,2.119-2.518,10.471,0.761,11.799c0.831-3.124-0.113-3.693,0.761-6.09C54.75,82.027,58.382,73.571,55.798,69.238z"/>
	<path fill="#FFFFFF" d="M58.082,18.238c-1.41,7.143,0.363,10.468-0.761,14.463c0.507,0,1.015,0,1.522,0
		c0.302-3.25-0.728-7.832,0.761-9.896c-1.72-0.247-0.471-3.298,0-3.806C58.373,19.47,59.313,17.769,58.082,18.238z"/>
	<path fill="#FFFFFF" d="M58.099,33.625c-0.171,0.66-3.017,2.204-3.062,2.502c-0.003,0.024,1.495-0.061,1.522,0
		c1.444,3.081-0.864,11.171,0.761,15.224c-1.942,2.593-1.255,6.459-0.761,8.373c-1.716,1.202-0.298,5.538-0.761,7.992
		c3.48-2.854-0.517-8.76,2.284-12.56C56.74,49.878,58.932,40.044,58.099,33.625z"/>
	<path fill="#FFFFFF" d="M54.275,92.455c0,1.776,0,3.553,0,5.328c1.606,0.591-0.083-2.113,1.522-1.522
		c-1.387-1.424-0.105-1.943,0-3.806C55.291,92.455,54.783,92.455,54.275,92.455z"/>
	<path fill="#FFFFFF" d="M102.611,31.94c0.381,0,0.761,0,1.142,0c0-0.762,0-1.522,0-2.284c-1.541-0.525-1.204,0.826-2.284,0.762
		c0,1.015,0,2.029,0,3.045C102.967,34.072,101.602,31.818,102.611,31.94z"/>
	<path fill="#FFFFFF" d="M87.388,28.896c1.671-1.12,1.067-4.515,2.284-6.09c-1.679,0.156-0.917-2.127-2.284-2.283
		c-0.096,1.871-0.108,3.66,0.761,4.566C86.573,25.035,87.752,27.737,87.388,28.896z"/>
	<path fill="#FFFFFF" d="M87.388,31.179c0.507,0,1.015,0,1.522,0c-0.166-0.85-0.673-1.356-1.522-1.522
		C87.388,30.164,87.388,30.671,87.388,31.179z"/>
	<path fill="#FFFFFF" d="M100.708,67.716c-1.231,0.471-0.291-1.231-1.522-0.761c0,1.015,0,2.03,0,3.045
		C100.308,69.853,100.059,68.335,100.708,67.716z"/>
	<path fill="#FFFFFF" d="M102.231,75.328c0.781-1.735,2.924-6.795,0-7.612C102.231,70.254,102.231,72.791,102.231,75.328z"/>
	<path fill="#FFFFFF" d="M100.708,47.545c0.502,1.771-1.264,1.273-0.761,3.044C101.183,50.846,102.453,47.815,100.708,47.545z"/>
	<path fill="#FFFFFF" d="M102.231,46.022c-0.087-0.675,0.384-1.906-0.761-1.522c0.47,1.231-1.231,0.291-0.761,1.522
		C101.216,46.022,101.724,46.022,102.231,46.022z"/>
	<path fill="#FFFFFF" d="M335.157,130.896c-0.732,0.142-0.32,1.426-0.335,2.284h2.656
		C336.702,132.421,335.885,131.703,335.157,130.896z"/>
	<path fill="#FFFFFF" d="M46.283,110.724c0-1.522,0-3.045,0-4.566c-0.761,0-1.522,0-2.283,0
		C43.723,108.717,45.317,109.406,46.283,110.724z"/>
	<path fill="#FFFFFF" d="M52.753,52.873c0.398,1.378-0.863,4.415,0.761,4.567C53.116,56.063,54.377,53.024,52.753,52.873z"/>
	<path fill="#FFFFFF" d="M54.275,98.545c-0.365,1.157,0.815,3.859-0.761,3.806c1.268,0.508-0.006,3.559,1.522,3.807
		C55.131,102.89,56.57,100.557,54.275,98.545z"/>
	<path fill="#FFFFFF" d="M24.969,65.433c-0.507,0-1.015,0-1.522,0c0.313,0.955-0.74,3.277,0.762,3.045
		C25.709,68.71,24.656,66.388,24.969,65.433z"/>
	<path fill="#FFFFFF" d="M11.648,15.193c1.944-1.734,0.856-6.502,2.284-8.753c-0.507,0-1.015,0-1.522,0
		C11.958,9.16,11.318,11.691,11.648,15.193z"/>
	<path fill="#FFFFFF" d="M334.016,127.09c-0.67-0.219-2.236,0.46-2.284-0.381c0.381-1.142,0.738-2.306,1.142-3.425
		c0.6,0.034,0.298,0.97,1.143,0.761c-0.155-1.55,0.838-1.952,1.141-3.045c1.01-0.121-0.355,2.132,1.143,1.522
		c0-1.776,0-3.552,0-5.328c-1.232-0.471-0.291,1.231-1.522,0.761c-1.283-3.933,1.188-8.431-2.284-11.037c0.762,0,1.523,0,2.284,0
		c0.654-11.714,0.019-19.729,2.283-27.784c-1.193-1.955,0.718-6.022,0-9.896c-1.231-0.47-0.29,1.232-1.522,0.762
		c0.114-0.748-0.514-0.755-0.761-1.142c-0.268-1.79,0.779-2.266,1.142-3.426c1.01-0.121-0.355,2.132,1.142,1.522
		c0.096-1.872,0.108-3.661-0.761-4.567c0.598-0.289,0.568-1.207,1.521-1.142c-0.803-3.152-0.199-3.38,0-6.851
		c-0.953,0.065-0.924-0.853-1.521-1.142c1.096-0.046,0.196-2.087,1.521-1.903c-1.541-2.117-0.568-6.756,1.523-7.612
		c-0.716-1.312-0.716-0.971,0-2.283c-1.771,0.502-1.274-1.264-3.045-0.762c0.525,1.541-0.826,1.204-0.762,2.284
		c0.85,0.165,1.357,0.673,1.522,1.522c-1.676,1.495,0.001,6.345-1.142,8.373c-0.318-1.331-1.023-2.274-1.142-3.806
		c-1.458-0.189-2.014,0.523-2.284,1.521c0.67,0.22,2.236-0.46,2.284,0.381c0,0.381,0,0.762,0,1.142
		c-1.541-0.525-1.204,0.826-2.284,0.762c1.219,1.231-0.659,3.192,0,6.09c0.656-0.263,2.218-1.549,3.045-0.381
		c-0.763,1.701-0.763,2.104,0,3.806c-0.719,0.086-0.84-0.429-1.521-0.381c-1.332,2.348-0.566,6.793-0.762,10.276
		c-0.675,0.087-1.906-0.384-1.522,0.762c1.388,1.424,0.104,1.943,0,3.806c1.079,0.065,0.743-1.287,2.284-0.761
		c0,1.522,0,3.044,0,4.566c-0.508,0-1.016,0-1.523,0c-0.379,1.648,0.426,2.112,0.762,3.045c-1.818,2.331-1.459,4.899-0.762,7.231
		c-1.68,0.604-0.322,4.244-0.761,6.09c-0.508,0-1.015,0-1.522,0c0,0.761,0,1.522,0,2.283c1.498,0.61,0.133-1.644,1.142-1.522
		c1.28-0.265,1.247,0.782,1.903,1.143c-1.402,0.12-0.186,2.859-1.143,3.425c-1.438,0.551-0.729-1.046-1.902-0.761
		c1.319,3.736,0.35,7.021-0.381,10.656c0.599,0.036,1.32-0.051,1.143,0.762c-1.635,0.891,0.421,0.903,0,2.664
		c-0.381,0-0.762,0-1.143,0c0.483,2.311-0.607,5.507,1.903,6.47c-0.77,0.626-0.993,1.799-1.522,2.664
		c0.569,0.065,1.404-0.136,1.522,0.381c-0.505,0.891-1.888,0.904-1.522,2.664c0.669,0.219,2.236-0.46,2.283,0.381
		c-0.002,2.152-0.104,3.668-0.251,4.948h1.774C334.016,131.149,334.016,129.12,334.016,127.09z"/>
	<path fill="#FFFFFF" d="M281.493,36.127c-0.07-0.564-0.92-0.35-1.522-0.381C279.158,37.146,281.909,37.463,281.493,36.127z"/>
	<path fill="#FFFFFF" d="M55.037,19c0,0.507,0,1.015,0,1.522c0.761,0,1.522,0,2.284,0C57.173,19.4,55.656,19.649,55.037,19z"/>
	<path fill="#FFFFFF" d="M53.514,66.194c-0.444-1.967,0.929-5.75-0.761-6.471C53.198,61.689,51.825,65.473,53.514,66.194z"/>
	<path fill="#FFFFFF" d="M54.275,73.045c0.189-1.458-0.523-2.014-1.522-2.284C53.403,71.38,53.154,72.897,54.275,73.045z"/>
	<path fill="#FFFFFF" d="M54.275,110.724c0.254,0,0.507,0,0.761,0c0-1.015,0-2.029,0-3.045
		C53.536,107.446,54.589,109.769,54.275,110.724z"/>
	<path fill="#FFFFFF" d="M54.275,49.067c-1.231,0.47-0.291-1.232-1.522-0.762c0,1.269,0,2.537,0,3.806
		C54.067,51.903,54.486,50.8,54.275,49.067z"/>
	<path fill="#FFFFFF" d="M55.798,32.701c-0.761,0-1.522,0-2.284,0c0,0.508,0,1.015,0,1.522C54.972,34.412,55.528,33.7,55.798,32.701
		z"/>
	<path fill="#FFFFFF" d="M53.514,20.522c0.268-2.577,1.909-7.66,0-9.896c-0.365,1.157,0.815,3.859-0.761,3.806
		c1.069,1.082-0.158,3.693-0.761,5.328C53.224,19.29,52.283,20.992,53.514,20.522z"/>
	<path fill="#FFFFFF" d="M53.514,25.089c0-0.507,0-1.015,0-1.522c-0.507,0-1.015,0-1.522,0
		C51.696,24.877,52.204,25.385,53.514,25.089z"/>
	<path fill="#FFFFFF" d="M305.471,1.873c-0.169-0.715-0.161-1.33-0.081-1.873h-1.677c-0.054,0.621-0.113,1.237-0.146,1.873
		C304.202,1.873,304.836,1.873,305.471,1.873z"/>
	<path fill="#FFFFFF" d="M308.515,117.194c0,0.507,0,1.015,0,1.522c0.508,0,1.015,0,1.522,0
		C309.873,117.867,309.365,117.359,308.515,117.194z"/>
	<path fill="#FFFFFF" d="M308.515,120.239c0.38,1.647-0.425,2.111-0.761,3.045c1.814-0.547-0.293,2.829,1.521,2.283
		c-0.225-1.747,0.119-2.927,0.762-3.806C309.873,120.912,309.365,120.404,308.515,120.239z"/>
	<path fill="#FFFFFF" d="M307.754,110.724c1.294,1.983-0.103,1.996,0.761,4.187c0.508,0,1.015,0,1.522,0
		c-0.3-1.695,0.26-2.53,0.762-3.425c-1.152-1.522-1.441-4.407-0.762-5.709c-0.598-0.29-0.568-1.208-1.522-1.142
		C308.078,106.479,309.434,110.121,307.754,110.724z"/>
	<path fill="#FFFFFF" d="M296.717,19c-0.314-0.955,0.739-3.277-0.762-3.045c-0.043,0.464-0.113,0.901-0.762,0.761
		C295.844,17.335,295.595,18.853,296.717,19z"/>
	<path fill="#FFFFFF" d="M286.06,113.008c0,0.634,0,1.269,0,1.902C287.229,115.493,287.229,112.425,286.06,113.008z"/>
	<path fill="#FFFFFF" d="M311.56,10.246c-1.231,0.47-0.291-1.231-1.522-0.762c0,0.889,0,1.776,0,2.664
		C311.364,12.333,310.464,10.292,311.56,10.246z"/>
	<path fill="#FFFFFF" d="M314.605,85.985c0,0.888,0,1.775,0,2.664C315.806,89.139,315.806,85.495,314.605,85.985z"/>
	<path fill="#FFFFFF" d="M295.956,34.984c-0.087-0.674,0.384-1.905-0.762-1.521c0.471,1.231-1.23,0.29-0.761,1.521
		C294.941,34.984,295.448,34.984,295.956,34.984z"/>
	<path fill="#FFFFFF" d="M310.038,14.433c0-0.508,0-1.015,0-1.522c-0.508,0-1.015,0-1.522,0
		C308.219,14.221,308.727,14.729,310.038,14.433z"/>
	<path fill="#FFFFFF" d="M305.471,38.41c1.23,0.471,0.29-1.231,1.521-0.761c0.195,3.122-0.982,2.994,0,5.328
		c-1.771-0.503-1.273,1.264-3.045,0.761c-0.525,1.541,0.826,1.204,0.762,2.284c1.854-1.735,0.727,0.736,2.664,0.761
		c0.311-5.779,1.73-10.449,1.902-16.365c-0.507,0-1.014,0-1.521,0c0,1.902,0,3.806,0,5.709
		C307.014,36.91,304.999,36.416,305.471,38.41z"/>
	<path fill="#FFFFFF" d="M307.754,22.806c0.313-0.955-0.74-3.277,0.761-3.045c-0.274,3.023,0.688,7.284-0.761,9.135
		c1.231-0.471,0.291,1.231,1.521,0.761c-1.314-6.065,3.145-9.798,0.762-14.463c-1.454,1.218-1.035-0.037-3.045,0
		c-0.422,1.608,0.896,4.956-0.761,5.329C306.881,21.142,306.633,22.658,307.754,22.806z M307.754,16.716c0.508,0,1.015,0,1.521,0
		c0,0.508,0,1.016,0,1.522C307.966,18.534,307.458,18.026,307.754,16.716z"/>
	<path fill="#FFFFFF" d="M293.672,70.761c-0.508,0-1.016,0-1.523,0c0,2.284,0,4.567,0,6.852
		C293.341,76.013,293.731,73.611,293.672,70.761z"/>
	<path fill="#FFFFFF" d="M288.344,87.888c0.525,1.541-0.826,1.204-0.762,2.284c1.231,0.47,0.291-1.231,1.522-0.762
		C289.018,88.736,289.489,87.505,288.344,87.888z"/>
	<path fill="#FFFFFF" d="M292.149,90.933c-0.342-1.054,0.783-3.572-0.761-3.425C291.731,88.561,290.606,91.08,292.149,90.933z"/>
	<path fill="#FFFFFF" d="M288.344,107.679c0.229-0.784-0.615-2.644,0.761-2.283c-0.649-0.619-0.401-2.137-1.522-2.283
		c-0.043,0.464-0.113,0.901-0.762,0.761c1.024,1.417,0.281,0.949,0,2.664C287.419,106.827,287.39,107.745,288.344,107.679z"/>
	<path fill="#FFFFFF" d="M292.149,80.656c-0.253,0-0.507,0-0.761,0c0,2.03,0,4.061,0,6.09c0.254,0,0.508,0,0.761,0
		C292.149,84.717,292.149,82.687,292.149,80.656z"/>
	<path fill="#FFFFFF" d="M287.583,96.261c2.369,0.34,3.385-0.675,3.045-3.044c-0.57-0.065-1.404,0.136-1.522-0.381
		c0.853-0.03,1.469-3.514,0-3.426c-0.165,0.85-0.673,1.357-1.522,1.522C289.264,92.568,286.979,93.548,287.583,96.261z"/>
	<path fill="#FFFFFF" d="M314.605,82.94c0,0.761,0,1.522,0,2.283c0.507,0,1.015,0,1.522,0
		C316.316,83.767,315.604,83.21,314.605,82.94z"/>
	<path fill="#FFFFFF" d="M294.433,57.44c-1.008-0.515-0.171-2.874-1.522-3.045c0,1.269,0,2.537,0,3.806
		C294.142,58.672,293.202,56.97,294.433,57.44z"/>
	<path fill="#FFFFFF" d="M293.672,61.246c-0.526-1.541,0.826-1.204,0.761-2.283c-1.231-0.471-0.291,1.231-1.522,0.761
		C292.998,60.398,292.528,61.63,293.672,61.246z"/>
	<path fill="#FFFFFF" d="M293.672,65.433c-0.23-0.784,0.613-2.644-0.762-2.283C293.141,63.934,292.296,65.793,293.672,65.433z"/>
	<path fill="#FFFFFF" d="M295.956,70.761c1.76-0.682-0.035-3.885-0.762-4.566C295.592,67.571,294.331,70.609,295.956,70.761z"/>
	<path fill="#FFFFFF" d="M305.471,7.962c-1.117-0.025-1.121-1.162-1.904-1.521c0.211,1.732-0.207,2.836-1.521,3.044
		c1.777,1.837-0.043,4.117,0,6.471C304.3,14.404,304.098,10.396,305.471,7.962z"/>
	<path fill="#FFFFFF" d="M311.56,36.507c1.05,0.346,2.017,0.774,1.522,2.664c1.231,0.471,0.291-1.231,1.522-0.761
		c-1.491-1.468-0.438-3.977,0-5.709c-0.761,0-1.522,0-2.284,0C313.934,34.269,312.247,35.176,311.56,36.507z"/>
	<path fill="#FFFFFF" d="M334.016,7.201c-0.526-1.541,0.825-1.204,0.761-2.283c-1.231,0.47-0.291-1.231-1.522-0.762
		c-0.043,0.465-0.113,0.901-0.762,0.762C332.304,6.375,333.016,6.931,334.016,7.201z"/>
	<path fill="#FFFFFF" d="M331.732,12.91c-1.567-2.26,0.39-5.9-0.761-7.992c-0.044,0.464-0.114,0.9-0.762,0.761
		c-0.002,3.191-0.264,4.305,0,7.231C330.717,12.91,331.224,12.91,331.732,12.91z"/>
	<path fill="#FFFFFF" d="M330.971,4.156c1.576,0.054,0.396-2.648,0.761-3.806c-0.508,0-1.015,0-1.522,0
		C330.852,1.229,331.196,2.409,330.971,4.156z"/>
	<path fill="#FFFFFF" d="M338.583,20.522c-0.365-1.158,0.814-3.86-0.762-3.807c-0.043,0.465-0.113,0.901-0.761,0.762
		C338.068,17.992,337.231,20.352,338.583,20.522z"/>
	<path fill="#FFFFFF" d="M343.911,36.127c-0.508,0-1.015,0-1.521,0c-0.27,3.287-0.122,3.517-0.762,5.328c0.762,0,1.522,0,2.283,0
		C342.424,40.015,343.532,37.857,343.911,36.127z"/>
	<path fill="#FFFFFF" d="M343.15,43.738c0.503,1.771-1.264,1.274-0.761,3.045c0.507,0,1.014,0,1.521,0
		C343.598,45.828,344.651,43.506,343.15,43.738z"/>
	<path fill="#FFFFFF" d="M346.195,1.111c0.044,1.313-1.566,0.972-1.522,2.284C346.256,3.999,348.029,1.473,346.195,1.111z"/>
	<path fill="#FFFFFF" d="M350,19.761c1.231,0.471,0.291-1.231,1.522-0.761c0.38,1.647-0.425,2.111-0.761,3.045
		c1.23,0.47,0.291-1.232,1.521-0.762c0.38-1.648-0.425-2.112-0.761-3.045c1.606,0.591-0.083-2.113,1.522-1.522
		c-1.639-1.814-0.351-5.107,0-7.231c-1.569,0.244-1.383,2.43-2.646,1.491c1.555,1.716,2.016,7.208-1.16,7.263
		C348.769,19.47,350.471,18.529,350,19.761z"/>
	<path fill="#FFFFFF" d="M326.784,36.127c0.87,0.906,0.857,2.695,0.762,4.566c1.231,0.471,0.291-1.231,1.522-0.761
		c-0.522-0.642-1.411-2.873-0.381-3.806c0.601,0.034,0.298,0.971,1.142,0.761c0.447-2.061-1.15-1.775,0-4.187
		c-1.541,0.526-1.203-0.826-2.283-0.761C327.163,33.206,328.387,36.08,326.784,36.127z"/>
	<path fill="#FFFFFF" d="M344.672,17.478c-0.23-0.785,0.614-2.645-0.762-2.284c0.065,1.08-1.287,0.743-0.761,2.284
		C343.657,17.478,344.165,17.478,344.672,17.478z"/>
	<path fill="#FFFFFF" d="M337.06,19c-0.507,0-1.015,0-1.522,0c0,0.507,0,1.015,0,1.522C336.387,20.356,336.895,19.85,337.06,19z"/>
	<path fill="#FFFFFF" d="M315.366,55.918c0.508,0,1.016,0,1.523,0c-0.519-2.294,0.751-2.801,0.761-4.567
		C316.032,52.017,316.405,54.672,315.366,55.918z"/>
	<path fill="#FFFFFF" d="M315.366,16.716c0.465-0.043,0.901-0.113,0.762-0.761c-1.08-0.065-0.742,1.287-2.283,0.761
		c0,0.508,0,1.016,0,1.522c0.761,0,1.521,0,2.283,0C316.598,17.007,314.896,17.947,315.366,16.716z"/>
	<path fill="#FFFFFF" d="M315.366,70c0.762,0,1.523,0,2.284,0c-0.147-1.122-1.665-0.873-2.284-1.522
		C315.366,68.985,315.366,69.492,315.366,70z"/>
	<path fill="#FFFFFF" d="M314.605,27.373c-0.23-0.785,0.614-2.645-0.761-2.284C314.075,25.874,313.229,27.733,314.605,27.373z"/>
	<path fill="#FFFFFF" d="M324.5,60.485c-0.23-0.785,0.614-2.645-0.762-2.284C323.969,58.986,323.125,60.846,324.5,60.485z"/>
	<path fill="#FFFFFF" d="M329.829,72.283c0.211-1.732-0.208-2.836-1.521-3.045c0.867,1.104,0.867,1.941,0,3.045
		C328.814,72.283,329.321,72.283,329.829,72.283z"/>
	<path fill="#FFFFFF" d="M326.784,50.589c0,1.27,0,2.538,0,3.807c0.508,0,1.016,0,1.523,0c-0.527-2.285-0.527-1.521,0-3.807
		C327.799,50.589,327.292,50.589,326.784,50.589z"/>
	<path fill="#FFFFFF" d="M326.784,35.746c-0.313-0.955,0.74-3.277-0.761-3.045c-0.043,0.465-0.114,0.901-0.761,0.762
		C325.911,34.082,325.663,35.599,326.784,35.746z"/>
	<path fill="#FFFFFF" d="M325.262,56.679c-0.398-1.378,0.863-4.415-0.762-4.567c0.522,1.919-0.781,2.011-0.762,3.426
		C324.338,55.827,324.308,56.744,325.262,56.679z"/>
	<path fill="#FFFFFF" d="M326.023,42.978c-0.087-0.675,0.384-1.906-0.761-1.522c0.47,1.231-1.232,0.291-0.762,1.522
		C325.008,42.978,325.515,42.978,326.023,42.978z"/>
	<path fill="#FFFFFF" d="M345.434,27.373c-0.381-1.648,0.424-2.112,0.761-3.045c-0.933-0.336-1.397-1.141-3.045-0.762
		c0,0.508,0,1.016,0,1.522C345.734,24.027,343.717,27.566,345.434,27.373z"/>
	<path fill="#FFFFFF" d="M333.254,16.716c-1.982,0.225-2.493,1.499-2.283-1.522c0.761,0,1.521,0,2.283,0
		c-0.431-1.726,0.908-5.222-0.762-5.709c-0.244,1.532,0.495,4.048-0.381,4.948c-1.438,0.551-0.729-1.046-1.902-0.762
		c-0.239,1.664,0.203,4.009-1.142,4.567c2.134,3.372-2.927,11.05,0.761,13.702c-0.329-4.26,1.199-9.873,0.381-12.18
		c1.541,0.526,1.203-0.826,2.283-0.761C331.05,17.32,332.649,18.082,333.254,16.716z"/>
	<path fill="#FFFFFF" d="M327.545,94.739c-0.043,0.464-0.113,0.9-0.762,0.761c0.166,0.85,0.674,1.356,1.523,1.522
		C328.077,96.238,328.92,94.378,327.545,94.739z"/>
	<path fill="#FFFFFF" d="M329.068,73.045c0.502,1.771-1.264,1.273-0.761,3.045C329.542,76.346,330.811,73.315,329.068,73.045z"/>
	<path fill="#FFFFFF" d="M332.493,36.127c0.929,1.182,2.404,2.97,0.762,4.566c1.634-0.142,1.642-1.91,1.522-3.806
		C333.236,37.414,333.573,36.062,332.493,36.127z"/>
	<path fill="#FFFFFF" d="M337.821,38.41c0.916-2.312-2.105-0.685-1.521-2.664c0.728-0.178,1.638,1.173,1.521-0.381
		c-0.047-0.841-1.613-0.161-2.283-0.381c-0.399,2.557,0.977,3.337,1.522,4.948c1.313-0.716,0.972-0.716,2.284,0
		c0-0.762,0-1.522,0-2.283C338.112,37.179,339.053,38.881,337.821,38.41z"/>
	<path fill="#FFFFFF" d="M325.262,65.433c0.23,0.784-0.615,2.645,0.761,2.283C325.792,66.932,326.637,65.072,325.262,65.433z"/>
	<path fill="#FFFFFF" d="M323.739,86.746c-0.223,1.618,0.373,2.419,1.523,2.664C325.485,87.792,324.889,86.991,323.739,86.746z"/>
	<path fill="#FFFFFF" d="M327.545,58.201c-0.313-0.955,0.74-3.277-0.762-3.045c-0.043,0.465-0.113,0.901-0.761,0.762
		c1.218,1.454-0.037,1.035,0,3.045C327.254,59.433,326.314,57.731,327.545,58.201z"/>
	<path fill="#FFFFFF" d="M316.127,49.067c0,0.507,0,1.015,0,1.521c1.313,0.044,0.971-1.565,2.283-1.521
		c0.087,0.674-0.383,1.905,0.762,1.521c0-0.761,0-1.521,0-2.283c-0.508,0-1.016,0-1.522,0
		C318.034,49.45,316.801,48.98,316.127,49.067z"/>
	<path fill="#FFFFFF" d="M341.627,53.634c0,1.016,0,2.03,0,3.045c0.508,0,1.015,0,1.522,0c0.037-2.009-1.218-1.591,0-3.045
		C342.642,53.634,342.135,53.634,341.627,53.634z"/>
	<path fill="#FFFFFF" d="M322.978,69.238c0.065,1.08-1.287,0.743-0.761,2.284c0.738,0.783,2.756,0.289,2.283,2.283
		c0.508,0,1.015,0,1.522,0c0.096-1.872,0.108-3.66-0.761-4.567C323.95,69.954,324.291,69.954,322.978,69.238z"/>
	<path fill="#FFFFFF" d="M344.672,92.455c0.006,2.023-0.277,4.337,0.762,5.328c1.23,0.471,0.29-1.231,1.521-0.761
		c-0.965-1.002-0.965-2.804,0-3.806C345.875,93.281,346.213,91.93,344.672,92.455z"/>
	<path fill="#FFFFFF" d="M350.762,71.522c0.23,0.784-0.615,2.644,0.761,2.283C351.292,73.021,352.137,71.162,350.762,71.522z"/>
	<path fill="#FFFFFF" d="M351.523,76.09c0-0.508,0-1.016,0-1.522c-0.507,0-1.015,0-1.522,0
		C350.167,75.417,350.673,75.924,351.523,76.09z"/>
	<path fill="#FFFFFF" d="M351.523,55.156c-0.807,1.971,1.673,2.612,0.381,3.807c-0.601-0.035-0.298-0.971-1.142-0.762
		c0.165,0.85,0.672,1.357,1.521,1.522C353.333,58.721,353.583,55.206,351.523,55.156z"/>
	<path fill="#FFFFFF" d="M355.329,36.888c-0.508,0-1.015,0-1.521,0c0.502,1.771-1.264,1.273-0.762,3.045
		C355.028,40.139,355.539,38.874,355.329,36.888z"/>
	<path fill="#FFFFFF" d="M348.478,40.693c0,0.508,0,1.016,0,1.522c0.508,0,1.015,0,1.522,0
		C349.834,41.367,349.328,40.859,348.478,40.693z"/>
	<path fill="#FFFFFF" d="M346.195,91.694c-0.23-0.785,0.614-2.645-0.761-2.284C345.664,90.195,344.819,92.055,346.195,91.694z"/>
	<path fill="#FFFFFF" d="M345.434,72.283c1.381,1.419-0.417,1.422,0,3.807c1.313-0.209,1.732-1.313,1.521-3.045
		C345.724,73.515,346.665,71.813,345.434,72.283z"/>
	<path fill="#FFFFFF" d="M350,10.627c0.149,0.151,0.278,0.259,0.398,0.349C350.272,10.835,350.141,10.712,350,10.627z"/>
	<path fill="#FFFFFF" d="M314.605,76.09c1.425-1.388,1.943-0.105,3.806,0c0-1.016,0-2.03,0-3.045
		C315.938,72.854,314.757,73.959,314.605,76.09z"/>
	<path fill="#FFFFFF" d="M343.15,47.545c0.166,2.195-1.688,2.371-1.522,4.566C344.18,53.028,344.756,48.294,343.15,47.545z"/>
	<path fill="#FFFFFF" d="M310.038,62.007c-0.954,3.588-0.065,8.665-2.283,12.561c2.443-0.451,2.443,8.063,0,7.611
		c0.27,0.999,0.826,1.712,2.283,1.522c2.346-5.36-0.154-10.863,2.283-15.985C310.509,66.864,312.614,62.096,310.038,62.007z"/>
	<path fill="#FFFFFF" d="M302.806,90.933c-0.313-0.955,0.74-3.277-0.761-3.045c0.502,1.771-1.264,1.274-0.762,3.045
		C301.792,90.933,302.299,90.933,302.806,90.933z"/>
	<path fill="#FFFFFF" d="M302.045,36.888c-0.459-1.601,0.614-1.669,0.761-2.664c0.065-1.08-1.287-0.743-0.761-2.283
		c-2.987,0.288-0.094,3.676-1.522,4.187C301.754,35.656,300.813,37.358,302.045,36.888z"/>
	<path fill="#FFFFFF" d="M315.366,94.358c-0.197-2.101,1.333-2.474,0.762-4.948c-0.508,0-1.016,0-1.522,0
		c0.853,1.09,0.778,1.851-0.761,2.284c0.222,1.52,0.222,8.376,0,9.896c1.424-0.353,1.943-1.609,3.806-1.522c0-0.508,0-1.016,0-1.522
		c-0.508,0-1.015,0-1.522,0c-0.087,0.675,0.383,1.906-0.762,1.522c-0.293-1.719-1.605-3.654,0.381-4.567
		c0.6,0.034,0.298,0.971,1.143,0.761c-0.471-1.231,1.23-0.29,0.761-1.521C316.981,94.52,315.414,95.199,315.366,94.358z"/>
	<path fill="#FFFFFF" d="M302.806,71.522c-0.043,0.464-0.114,0.901-0.761,0.761c0.649,0.619,0.4,2.137,1.521,2.284
		C303.254,73.612,304.307,71.29,302.806,71.522z"/>
	<path fill="#FFFFFF" d="M296.336,55.156c-0.725,2.574-0.126,6.472-1.143,8.754c1.311-0.974,1.666-2.901,1.523-5.328
		C297.596,58.523,298.334,54.584,296.336,55.156z"/>
	<path fill="#FFFFFF" d="M302.045,93.217c-1.205,1.158-1.087,4.305,1.521,3.806c0-1.015,0-2.03,0-3.045
		C302.336,94.448,303.277,92.746,302.045,93.217z"/>
	<path fill="#FFFFFF" d="M295.194,107.679c0-0.507,0-1.015,0-1.521c-0.507,0-1.015,0-1.521,0
		C293.376,107.467,293.883,107.975,295.194,107.679z"/>
	<path fill="#FFFFFF" d="M289.866,110.724c0.515-1.008,2.874-0.171,3.045-1.522c-1.269,0-2.537,0-3.806,0
		C288.634,110.433,290.336,109.492,289.866,110.724z"/>
	<path fill="#FFFFFF" d="M295.194,74.567c-0.043,0.464-0.113,0.901-0.761,0.761c0,1.015,0,2.03,0,3.045
		c1.538-0.238,1.533-2.019,2.284-3.045C295.485,75.799,296.426,74.097,295.194,74.567z"/>
	<path fill="#FFFFFF" d="M294.433,101.59c0.318,1.311-2.319,3.659,0.381,3.806C295.304,105.003,295.793,101.394,294.433,101.59z"/>
	<path fill="#FFFFFF" d="M296.717,92.455c-1.232,0.471-0.291-1.231-1.523-0.761c1.579,1.591-0.876,2.976-1.521,4.566
		c0.869,0.907,0.856,2.695,0.761,4.567c1.606,0.591-0.083-2.113,1.522-1.522c0.471-1.231-1.231-0.291-0.762-1.522
		C298.412,97.172,294.545,94.113,296.717,92.455z"/>
	<path fill="#FFFFFF" d="M302.045,105.396c0.525,1.541-0.826,1.204-0.762,2.283c1.232-0.47,0.291,1.232,1.522,0.762
		C302.493,107.485,303.546,105.163,302.045,105.396z"/>
	<path fill="#FFFFFF" d="M313.083,47.545c-1.08,0.064-0.742-1.287-2.283-0.762c0.633,1.627-0.329,4.812,0.761,7.612
		C314.522,53.019,311.583,50.384,313.083,47.545z"/>
	<path fill="#FFFFFF" d="M305.471,76.851c-0.254,0-0.508,0-0.762,0c-0.043,0.465-0.113,0.901-0.762,0.762c0,0.253,0,0.507,0,0.761
		c0.465,0.043,0.901,0.113,0.762,0.761c0.254,0,0.508,0,0.762,0c0.043-0.464,0.113-0.9,0.761-0.761c0-0.254,0-0.508,0-0.761
		C305.768,77.568,305.331,77.498,305.471,76.851z"/>
	<path fill="#FFFFFF" d="M316.127,123.284c0.188-1.458-0.523-2.015-1.522-2.284c-0.043,0.465-0.114,0.901-0.761,0.762
		c0,0.761,0,1.522,0,2.283C314.923,124.109,314.586,122.758,316.127,123.284z"/>
	<path fill="#FFFFFF" d="M316.127,105.396c-1.313,0.716-0.972,0.716-2.283,0c-0.575,2.098,1.023,2.021,0.761,3.806
		c-0.507,0-1.015,0-1.522,0c3.359,1.336-1.127,5.838,1.902,7.231c-0.249-5.094,3.61-10.06,1.143-14.843
		C316.127,102.858,316.127,104.127,316.127,105.396z"/>
	<path fill="#FFFFFF" d="M315.366,129.754c-0.035-0.599,0.051-1.319-0.761-1.142c0,1.269,0,2.537,0,3.806
		c0.748,0.114,0.755-0.514,1.142-0.761c0.6,0.034,0.298,0.971,1.143,0.761c0-0.761,0-1.522,0-2.283
		C316.319,130.069,315.484,130.271,315.366,129.754z"/>
	<path fill="#FFFFFF" d="M314.605,120.239c-0.23-0.785,0.614-2.645-0.761-2.284C314.075,118.74,313.229,120.6,314.605,120.239z"/>
	<path fill="#FFFFFF" d="M303.567,51.351c0.22,0.669-0.459,2.236,0.381,2.283c-0.383-1.145,0.849-0.674,1.523-0.761
		c-0.12,1.896-0.112,3.664,1.521,3.806c0.91-2.126,0.855-4.622-0.761-6.09C306.543,53.363,304.704,51.41,303.567,51.351z"/>
	<path fill="#FFFFFF" d="M307.754,131.657c1.015,0,2.029,0,3.045,0C311.356,128.744,307.198,128.744,307.754,131.657z"/>
	<path fill="#FFFFFF" d="M288.344,108.44c-0.508,0-1.016,0-1.523,0c-0.512,2.288,1.273,2.278,0.762,4.567
		c1.231,0.47,0.291-1.231,1.522-0.762C288.461,111.367,288.119,110.188,288.344,108.44z"/>
	<path fill="#FFFFFF" d="M307.754,94.739c0.569,0.064,1.404-0.137,1.521,0.38c-1.465,1.429-1.031,6.619,0.762,7.231
		c2.033-2.854-0.894-6.892,0.762-9.134c-0.675-0.087-1.906,0.383-1.523-0.762c0.508,0,1.016,0,1.523,0
		c0.175-2.332-0.025-4.288-0.762-5.709C305.696,87.763,309.537,92.114,307.754,94.739z"/>
	<path fill="#FFFFFF" d="M222.5,48.306c-0.508,0-1.016,0-1.523,0c0,0.508,0,1.015,0,1.522
		C221.827,49.663,222.334,49.155,222.5,48.306z"/>
	<path fill="#FFFFFF" d="M225.545,128.612c0.23,0.784-0.615,2.644,0.761,2.283C226.076,130.111,226.92,128.252,225.545,128.612z"/>
	<path fill="#FFFFFF" d="M224.784,107.679c0.422,1.608-0.896,4.956,0.762,5.329C227.021,112.39,226.672,107.427,224.784,107.679z"/>
	<path fill="#FFFFFF" d="M228.209,56.679c3.4-1.294-0.193-4.902,0.761-8.373c-0.507,0-1.015,0-1.522,0
		c-0.006,2.023,0.277,4.337-0.762,5.328C228.906,52.938,228.069,55.297,228.209,56.679z"/>
	<path fill="#FFFFFF" d="M228.209,107.679c0.086,0.675-0.384,1.906,0.761,1.522c-0.526-1.54,0.826-1.203,0.761-2.283
		C228.5,106.447,229.44,108.149,228.209,107.679z"/>
	<path fill="#FFFFFF" d="M224.784,114.149c0.465-0.043,0.901-0.114,0.762-0.762c-0.85,0.166-1.357,0.674-1.523,1.522
		c1.232-0.47,0.291,1.231,1.523,0.762C226.015,114.44,224.313,115.381,224.784,114.149z"/>
	<path fill="#FFFFFF" d="M224.784,103.873c0,1.015,0,2.03,0,3.045c1.121-0.147,0.873-1.664,1.522-2.283
		C225.075,105.104,226.015,103.403,224.784,103.873z"/>
	<path fill="#FFFFFF" d="M214.888,51.351c2.59-0.622,1.328,2.441,0.761,3.045c0.508,0,1.016,0,1.523,0c0-1.522,0-3.045,0-4.567
		C215.714,49.64,215.159,50.352,214.888,51.351z"/>
	<path fill="#FFFFFF" d="M221.739,52.111c-1.375-0.36-0.531,1.499-0.762,2.284c1.606-0.591-0.082,2.113,1.523,1.522
		C222.762,54.133,221.165,54.209,221.739,52.111z"/>
	<path fill="#FFFFFF" d="M227.448,62.388c-0.471,1.231,1.231,0.291,0.762,1.522c0.85-0.165,1.356-0.673,1.521-1.522
		C228.618,62.046,228.562,62.046,227.448,62.388z"/>
	<path fill="#FFFFFF" d="M225.545,93.978c0.574-2.098-1.023-2.021-0.762-3.806c0.508,0,1.015,0,1.522,0
		c-0.165-0.85-0.673-1.357-1.522-1.522c0.189,1.457-0.523,2.014-1.522,2.283c0.868,1.104,0.868,1.94,0,3.045
		C224.022,93.978,224.784,93.978,225.545,93.978z"/>
	<path fill="#FFFFFF" d="M221.739,32.701c-0.043,0.465-0.113,0.901-0.762,0.762c0.844,0.552,0.279,2.512,1.523,2.664
		C222.159,35.073,223.282,32.554,221.739,32.701z"/>
	<path fill="#FFFFFF" d="M352.284,7.201c0.74-0.503,2.756-1.683,2.284,0.761c1.417,0.021,1.098-1.693,1.142-3.044
		c-1.373-0.063-2.029,1.806-1.902-0.762c-0.508,0-1.016,0-1.523,0c0.526,1.541-0.826,1.204-0.761,2.284
		C351.987,6.483,352.424,6.554,352.284,7.201z"/>
	<path fill="#FFFFFF" d="M229.731,44.5c0-0.508,0-1.015,0-1.522c-0.507,0-1.015,0-1.521,0
		C228.375,43.827,228.881,44.334,229.731,44.5z"/>
	<path fill="#FFFFFF" d="M236.583,108.44c0,1.015,0,2.029,0,3.045c0.508,0,1.015,0,1.521,0c-0.401-0.999-1.455-1.712,0.762-1.522
		C238.596,108.964,238.04,108.251,236.583,108.44z"/>
	<path fill="#FFFFFF" d="M240.388,53.634c0.509,2.285-2.03,1.521-1.522,3.807c1.08,0.064,0.742-1.287,2.283-0.762
		C240.836,55.724,241.889,53.401,240.388,53.634z"/>
	<path fill="#FFFFFF" d="M240.388,66.955c-0.569-0.064-1.405,0.136-1.522-0.381c0.505-0.891,1.887-0.904,1.522-2.664
		c-0.507,0-1.015,0-1.522,0c-0.792,1.745-0.488,4.586-1.522,6.09c1.305-0.387,0.907,2.859,0.381,3.045
		c-1.009,0.121,0.356-2.133-1.142-1.522c-0.509,2.284,2.03,1.521,1.521,3.806c0.762,0,1.523,0,2.284,0
		C240.959,72.009,239.459,68.286,240.388,66.955z"/>
	<path fill="#FFFFFF" d="M166.933,87.888c0.295,0.086,0.751,0.011,0.761,0.381c-2.835,4.167,0.478,8.106-2.284,12.94
		c0.598,4.226,0.294,13.939-0.761,19.03c1.268,0.508-0.006,3.559,1.522,3.806c2.657-1.657,0.505-8.122,2.284-10.657
		c-1.678-3.233,0.436-10.794-0.761-14.843c2.454-2.229,0.194-7.223,2.284-11.037C169.067,87.739,167.216,87.029,166.933,87.888z"/>
	<path fill="#FFFFFF" d="M238.866,89.41c-1.605,0.591,0.084-2.113-1.522-1.522c-0.701,2.545-0.701,5.829,0,8.373
		c-1.657,0.374-0.73,4.111,0.761,3.807c0.541-1.966,1.108-3.156,0-4.948c0.6-0.289,0.569-1.207,1.523-1.142
		c-0.716-1.313-0.716-0.972,0-2.283C238.088,91.261,238.012,90.5,238.866,89.41z"/>
	<path fill="#FFFFFF" d="M228.97,26.611c-1.405,5.118,0.5,8.54-0.761,11.799c0.648,0.619,0.4,2.137,1.521,2.283
		c-0.222-2.695,0.609-6.445-0.761-7.992c1.231,0.471,0.291-1.231,1.522-0.761C230.571,29.578,230.134,27.731,228.97,26.611z"/>
	<path fill="#FFFFFF" d="M232.776,69.238c-0.507,0-1.015,0-1.521,0c-0.088,2.197,0.402,4.971-0.762,6.09
		c2.359,0.837,0.686-2.359,3.045-1.522C234.049,71.518,232.264,71.527,232.776,69.238z"/>
	<path fill="#FFFFFF" d="M233.538,32.701c0,0.508,0,1.015,0,1.522c0.508,0,1.015,0,1.522,0
		C234.895,33.374,234.387,32.866,233.538,32.701z"/>
	<path fill="#FFFFFF" d="M232.776,51.351c0.318,1.311-2.318,3.659,0.381,3.806C233.647,54.764,234.136,51.154,232.776,51.351z"/>
	<path fill="#FFFFFF" d="M229.731,25.851c0-0.762,0-1.522,0-2.284c-0.507,0-1.015,0-1.521,0
		C228.02,25.024,228.733,25.58,229.731,25.851z"/>
	<path fill="#FFFFFF" d="M193.956,69.238c0.364,1.158-0.815,3.86,0.761,3.807c-0.225-1.747,0.118-2.927,0.761-3.807
		C194.97,69.238,194.462,69.238,193.956,69.238z"/>
	<path fill="#FFFFFF" d="M195.477,52.111c-0.507,0-1.015,0-1.521,0c0.867,1.104,0.867,1.941,0,3.045
		c1.605-0.591-0.084,2.113,1.521,1.522c-0.525-1.541,0.826-1.203,0.762-2.283C194.864,54.756,195.708,52.896,195.477,52.111z"/>
	<path fill="#FFFFFF" d="M195.477,22.806c0.254,0,0.508,0,0.762,0c0-1.015,0-2.03,0-3.045
		C194.738,19.528,195.792,21.851,195.477,22.806z"/>
	<path fill="#FFFFFF" d="M193.194,80.656c0.85-0.165,1.357-0.673,1.522-1.522c-0.507,0-1.015,0-1.522,0
		C193.194,79.642,193.194,80.149,193.194,80.656z"/>
	<path fill="#FFFFFF" d="M194.716,25.089c0,0.762,0,1.522,0,2.284c0.507,0,1.015,0,1.522,0
		C195.589,26.754,195.838,25.236,194.716,25.089z"/>
	<path fill="#FFFFFF" d="M189.388,128.612c0.229,0.784-0.614,2.644,0.761,2.283C189.918,130.111,190.763,128.252,189.388,128.612z"
		/>
	<path fill="#FFFFFF" d="M169.978,69.238c-0.933,0.337-1.396,1.142-3.045,0.762c0.339,2.369-1.066,2.993-1.522,4.567
		c0.507,0,1.015,0,1.522,0c0.219-0.67-0.46-2.236,0.381-2.284c0.455,1.194,1.463,1.836,1.142,3.807c0.507,0,1.015,0,1.522,0
		c-0.225-1.747,0.118-2.927,0.761-3.807C170.403,71.351,169.598,70.887,169.978,69.238z"/>
	<path fill="#FFFFFF" d="M195.477,18.238c0.254,0,0.508,0,0.762,0c0-1.015,0-2.029,0-3.045
		C194.738,14.961,195.792,17.283,195.477,18.238z"/>
	<path fill="#FFFFFF" d="M168.455,79.896c1.001-0.521,1.419-1.625,1.522-3.045C168.976,77.372,168.558,78.476,168.455,79.896z"/>
	<path fill="#FFFFFF" d="M178.731,103.112c-0.23-0.785,0.614-2.645-0.761-2.284c0.526,1.541-0.826,1.204-0.761,2.284
		C177.716,103.112,178.224,103.112,178.731,103.112z"/>
	<path fill="#FFFFFF" d="M173.022,13.671c-0.055,3.498-1.043,6.063-2.284,8.374c1.584,8.702-0.528,19.615,0,27.783
		c-0.879,0.644-2.059,0.986-3.806,0.761c0.336,0.934,1.141,1.396,0.761,3.045c1.606,0.591-0.083-2.113,1.522-1.522
		c1.371,1.548,0.539,5.297,0.761,7.993c-0.921,0.211-1.667,4.988,0.38,4.567c1.613-7.817-0.158-13.864,2.665-22.456
		C171.267,33.925,174.711,19.864,173.022,13.671z"/>
	<path fill="#FFFFFF" d="M239.627,17.478c-0.508,0-1.016,0-1.523,0c0,0.507,0,1.015,0,1.522
		C238.954,18.834,239.461,18.327,239.627,17.478z"/>
	<path fill="#FFFFFF" d="M238.104,35.746c-0.379-1.648,0.426-2.112,0.762-3.045c-0.508,0-1.015,0-1.522,0
		c0.526,1.541-0.826,1.204-0.761,2.283C237.814,34.515,236.874,36.217,238.104,35.746z"/>
	<path fill="#FFFFFF" d="M230.493,16.716c-0.035-3.157,1.702-5.465-0.762-7.231c-0.41,1.492,0.882,4.688-0.761,4.948
		C229.62,15.052,229.372,16.569,230.493,16.716z"/>
	<path fill="#FFFFFF" d="M224.022,56.679c0.762,0,1.523,0,2.284,0c-1.093-1.445-0.054-5.021-1.522-6.09
		c-0.303,1.474,0.972,4.524-1.522,3.807C223.196,55.476,224.548,55.138,224.022,56.679z"/>
	<path fill="#FFFFFF" d="M225.545,76.851c-1.46-0.57,0.141-4.201-1.523-4.567C224.45,73.886,222.85,77.516,225.545,76.851z"/>
	<path fill="#FFFFFF" d="M241.149,109.963c1.232-0.471,0.291,1.231,1.523,0.761c-0.117-2.167,0.624-5.191-1.523-5.328
		C240.561,108.001,242.533,108.625,241.149,109.963z"/>
	<path fill="#FFFFFF" d="M241.911,34.984c-0.23-0.784,0.614-2.644-0.762-2.283C241.379,33.485,240.536,35.346,241.911,34.984z"/>
	<path fill="#FFFFFF" d="M206.515,11.388c0.384,1.145-0.849,0.675-1.522,0.761c1.218,1.455-0.037,1.036,0,3.045
		c0.508,0,1.015,0,1.522,0C205.604,13.304,208.652,12.052,206.515,11.388z"/>
	<path fill="#FFFFFF" d="M241.911,41.455c0.867,1.104,0.867,1.94,0,3.045c1.231-0.471,0.291,1.231,1.522,0.761
		c0-1.015,0-2.029,0-3.045C242.202,42.687,243.142,40.984,241.911,41.455z"/>
	<path fill="#FFFFFF" d="M202.709,32.701c0.313,0.955-0.74,3.277,0.761,3.045C205.213,35.475,203.944,32.445,202.709,32.701z"/>
	<path fill="#FFFFFF" d="M243.433,50.589c0.364,1.158-0.815,3.86,0.761,3.807C243.83,53.237,245.009,50.535,243.433,50.589z"/>
	<path fill="#FFFFFF" d="M236.583,100.828c-0.262,1.785,1.336,1.709,0.761,3.807c1.501,0.232,0.448-2.09,0.761-3.045
		C236.874,102.06,237.814,100.358,236.583,100.828z"/>
	<path fill="#FFFFFF" d="M241.911,117.194c0.502,1.771-1.264,1.273-0.762,3.045C242.385,120.495,243.655,117.465,241.911,117.194z"
		/>
	<path fill="#FFFFFF" d="M260.179,72.283c-0.563-0.07-0.349-0.92-0.38-1.522c-0.508,0-1.016,0-1.523,0
		c0.225,1.747-0.117,2.927-0.761,3.807c2.349,0.844,2.046-0.2,3.806,0.761c0.526-1.541-0.826-1.204-0.761-2.283
		c1.231-0.471,0.29,1.231,1.522,0.761c0-1.269,0-2.537,0-3.806c-0.762,0-1.522,0-2.283,0
		C259.713,70.764,261.497,71.541,260.179,72.283z"/>
	<path fill="#FFFFFF" d="M271.978,122.522c1.352-0.171,0.515-2.53,1.522-3.045c-2.023,0.247,0.5-4.053-1.522-3.806
		c-0.044,0.464-0.114,0.901-0.761,0.761C272.381,117.552,271.891,120.325,271.978,122.522z"/>
	<path fill="#FFFFFF" d="M273.5,127.09c0.383,1.145-0.848,0.674-1.522,0.761c0.398,1.378-0.863,4.416,0.761,4.567
		c0-1.269,0-2.537,0-3.806c0.675-0.087,1.906,0.384,1.522-0.762C274.218,127.387,274.148,126.949,273.5,127.09z"/>
	<path fill="#FFFFFF" d="M272.739,85.224c1.232,3.933-2.259,8.682,0.381,10.276c0.173-2.111,1.207-3.361,1.902-4.948
		C272.093,90.944,274.718,85.782,272.739,85.224z"/>
	<path fill="#FFFFFF" d="M271.978,98.545c0,0.507,0,1.015,0,1.522c1.901,0.165-0.296,0.673,0,1.522
		c1.231-0.471,0.29,1.231,1.522,0.761c0.416-2.384-1.383-2.387,0-3.806C272.993,98.545,272.485,98.545,271.978,98.545z"/>
	<path fill="#FFFFFF" d="M259.038,16.716c-0.508,0-1.016,0-1.522,0c0,0.508,0,1.016,0,1.522
		C258.365,18.073,258.872,17.565,259.038,16.716z"/>
	<path fill="#FFFFFF" d="M258.276,27.373c0-0.508,0-1.015,0-1.522c-1.541,0.525-1.203-0.826-2.283-0.762
		C255.871,26.733,256.631,27.495,258.276,27.373z"/>
	<path fill="#FFFFFF" d="M258.276,95.5c0.762,0,1.523,0,2.284,0c-0.587-1.803-1.485-5.252,0-6.851
		c-1.08-0.065-0.743,1.287-2.284,0.761C259.309,91.696,257.925,92.154,258.276,95.5z"/>
	<path fill="#FFFFFF" d="M259.038,107.679c0,0.762,0,1.522,0,2.284c1.457,0.188,2.014-0.523,2.283-1.522
		C259.78,108.966,260.118,107.614,259.038,107.679z"/>
	<path fill="#FFFFFF" d="M257.515,115.672c2.366-0.044,1.771-3.051,2.284-4.948c-0.508,0-1.016,0-1.523,0
		C258.318,112.669,258.475,114.729,257.515,115.672z"/>
	<path fill="#FFFFFF" d="M263.605,13.671c-1.146-0.383-0.675,0.849-0.762,1.522c1.231-0.47,0.291,1.231,1.522,0.762
		C264.43,14.875,263.079,15.212,263.605,13.671z"/>
	<path fill="#FFFFFF" d="M266.649,32.701c0,0.762,0,1.522,0,2.283c0.508,0,1.016,0,1.523,0
		C268.361,33.527,267.649,32.971,266.649,32.701z"/>
	<path fill="#FFFFFF" d="M265.888,47.545c0,1.522,0,3.044,0,4.566c1.021-0.375,1.2-1.591,1.522-2.664
		C266.315,49.401,267.213,47.36,265.888,47.545z"/>
	<path fill="#FFFFFF" d="M265.127,70.761c0,0.508,0,1.016,0,1.522c0.508,0,1.015,0,1.521,0
		C266.484,71.434,265.977,70.927,265.127,70.761z"/>
	<path fill="#FFFFFF" d="M272.739,77.612c-0.086-0.675,0.384-1.906-0.761-1.522c0.47,1.231-1.231,0.29-0.761,1.522
		C271.724,77.612,272.231,77.612,272.739,77.612z"/>
	<path fill="#FFFFFF" d="M269.694,7.962c0.065,1.08-1.287,0.743-0.761,2.284c0.507,0,1.015,0,1.522,0
		C270.225,9.461,271.07,7.602,269.694,7.962z"/>
	<path fill="#FFFFFF" d="M265.888,85.224c-1.67,0.487-0.331,3.982-0.761,5.709c1.231,0.471,0.291-1.231,1.521-0.761
		C265.69,89.229,265.846,87.168,265.888,85.224z"/>
	<path fill="#FFFFFF" d="M265.127,118.717c-0.225,1.747,0.117,2.927,0.761,3.806c-2.769,3.188,0.095,6.974-1.522,9.896
		c0.762,0,1.522,0,2.283,0c0-2.41,0-4.821,0-7.231C264.417,123.844,268.774,119.396,265.127,118.717z"/>
	<path fill="#FFFFFF" d="M273.5,105.396c-0.508,0-1.016,0-1.522,0c-0.209,3.987,0.797,4.529,0,7.612
		c1.163-0.275,1.387,0.389,2.283,0.38c-0.274-2.571-0.708-1.849,0-4.187c-1.231-0.47-0.29,1.231-1.522,0.762
		C272.227,107.674,274.012,107.684,273.5,105.396z"/>
	<path fill="#FFFFFF" d="M262.083,37.649c-0.411-1.492,0.881-4.688-0.762-4.948C261.732,34.193,260.44,37.389,262.083,37.649z"/>
	<path fill="#FFFFFF" d="M264.366,112.246c-0.788,1.586,2.074,1.43,2.283,0.762C265.57,113.072,265.907,111.721,264.366,112.246z"/>
	<path fill="#FFFFFF" d="M262.083,59.724c0.393,1.789-1.326,1.465-0.762,3.426C262.69,63.437,263.786,60.045,262.083,59.724z"/>
	<path fill="#FFFFFF" d="M335.538,111.485c0,0.634,0,1.269,0,1.902C336.708,113.971,336.708,110.902,335.538,111.485z"/>
	<path fill="#FFFFFF" d="M251.045,110.724c0.525,1.541-0.826,1.204-0.762,2.284c0.508,0,1.016,0,1.522,0
		C251.576,112.223,252.42,110.363,251.045,110.724z"/>
	<path fill="#FFFFFF" d="M274.261,38.41c0.395-2.381-1.522-2.682,0-4.187c-0.761,0-1.522,0-2.283,0
		c0.526,1.541-0.826,1.204-0.761,2.283C272.26,37.112,272.324,38.699,274.261,38.41z"/>
	<path fill="#FFFFFF" d="M253.709,75.328c0-0.508,0-1.015,0-1.522c-0.381,0-0.762,0-1.143,0
		C252.727,74.534,252.706,75.444,253.709,75.328z"/>
	<path fill="#FFFFFF" d="M251.045,87.888c-0.508,0-1.016,0-1.523,0c0,0.508,0,1.016,0,1.522
		C250.372,89.245,250.879,88.737,251.045,87.888z"/>
	<path fill="#FFFFFF" d="M274.261,25.089c1.577,0.055,0.396-2.648,0.761-3.806c-0.507,0-1.014,0-1.521,0
		C273.866,22.44,272.685,25.144,274.261,25.089z"/>
	<path fill="#FFFFFF" d="M353.807,9.484c-0.583,1.17,2.484,1.17,1.902,0C355.075,9.484,354.441,9.484,353.807,9.484z"/>
	<path fill="#FFFFFF" d="M243.433,70.761c-0.508,0-1.015,0-1.522,0c-0.109,1.887,1.168,2.385,2.283,3.045
		C244.697,72.035,242.93,72.532,243.433,70.761z"/>
	<path fill="#FFFFFF" d="M244.194,29.275c-0.598,0.29-0.568,1.208-1.521,1.143c0,1.522,0,3.045,0,4.566
		c2.334,0.306,0.627-3.433,2.283-3.806c-1.039-2.189-0.1-2,0-5.328C243.385,25.765,242.782,28.663,244.194,29.275z"/>
	<path fill="#FFFFFF" d="M245.716,3.396c-0.47,1.231,1.231,0.291,0.762,1.522c-1.313-0.044-0.972,1.565-2.284,1.522
		c1.253,3.821,0.215,6.701-0.761,11.037c0.761,0,1.522,0,2.283,0c0.93-5.43,2.264-9.745,0.762-14.844
		C246.434,3.099,246.364,3.535,245.716,3.396z"/>
	<path fill="#FFFFFF" d="M243.433,19.761c0.336,0.933,1.141,1.396,0.761,3.045c-1.457-0.188-2.014,0.523-2.283,1.522
		c1.704-0.563,1.169,1.114,2.664,0.761C246.767,23.876,247.274,16.955,243.433,19.761z"/>
	<path fill="#FFFFFF" d="M264.366,82.94c0.949,0.156,2.548-2.128,0.762-2.284C265.192,81.736,263.84,81.399,264.366,82.94z"/>
	<path fill="#FFFFFF" d="M265.888,100.828c-0.364-1.157,0.815-3.859-0.761-3.806C265.492,98.18,264.312,100.882,265.888,100.828z"/>
	<path fill="#FFFFFF" d="M275.022,89.41c0.85-0.165,1.357-0.673,1.523-1.522c-0.72,0.086-0.84-0.429-1.523-0.38
		C275.023,88.142,275.022,88.776,275.022,89.41z"/>
	<path fill="#FFFFFF" d="M283.015,113.388c0.761,0,1.522,0,2.284,0c0-0.634,0-1.269,0-1.902c-0.508,0-1.016,0-1.523,0
		C284.102,112.698,283.445,112.93,283.015,113.388z"/>
	<path fill="#FFFFFF" d="M273.5,42.216c0-1.015,0-2.029,0-3.045c-1.502-0.231-0.447,2.09-0.762,3.045
		C272.993,42.216,273.247,42.216,273.5,42.216z"/>
	<path fill="#FFFFFF" d="M264.366,103.112c0.166,0.85,0.673,1.356,1.522,1.522c-0.23-0.785,0.614-2.645-0.761-2.284
		C265.084,102.815,265.013,103.252,264.366,103.112z"/>
	<path fill="#FFFFFF" d="M265.888,109.201c-1.231-0.47-0.29,1.231-1.522,0.762c0,0.507,0,1.015,0,1.522c0.508,0,1.016,0,1.522,0
		c0.471-1.231-1.231-0.291-0.761-1.522C265.591,109.92,266.028,109.849,265.888,109.201z"/>
	<path fill="#FFFFFF" d="M265.888,70c-0.23-0.784,0.614-2.645-0.761-2.284C265.358,68.501,264.513,70.36,265.888,70z"/>
	<path fill="#FFFFFF" d="M271.978,54.396c-0.526-1.541,0.826-1.204,0.761-2.284c-1.231-0.47-0.291,1.232-1.521,0.762
		C271.303,53.548,270.833,54.779,271.978,54.396z"/>
	<path fill="#FFFFFF" d="M309.276,18.238c0-0.507,0-1.015,0-1.522c-0.507,0-1.014,0-1.521,0
		C307.458,18.026,307.966,18.534,309.276,18.238z"/>
	<path fill="#FFFFFF" d="M284.538,55.918c-0.365-1.158,0.814-3.86-0.762-3.807C284.141,53.27,282.961,55.972,284.538,55.918z"/>
	<path fill="#FFFFFF" d="M283.776,56.679c-0.773,1.002-0.748,2.804-1.521,3.807c0.674,0.086,1.906-0.384,1.521,0.761
		c-0.507,0-1.015,0-1.521,0c-0.006,3.685,0.334,7.023,1.521,9.515c-0.096-1.871-0.107-3.66,0.762-4.566
		C281.915,64.087,286.583,58.97,283.776,56.679z"/>
	<path fill="#FFFFFF" d="M151.708,60.485c0.471,1.231-1.231,0.29-0.761,1.521c0.72-0.085,0.839,0.43,1.522,0.381
		C152.301,61.669,152.988,60.094,151.708,60.485z"/>
	<path fill="#FFFFFF" d="M102.992,83.701c-0.23-0.784,0.614-2.644-0.761-2.283C102.461,82.202,101.617,84.062,102.992,83.701z"/>
	<path fill="#FFFFFF" d="M283.015,88.649c0.23,0.784-0.614,2.644,0.761,2.283C283.545,90.148,284.391,88.289,283.015,88.649z"/>
	<path fill="#FFFFFF" d="M178.731,93.217c0,1.015,0,2.029,0,3.044c1.121-0.146,0.873-1.664,1.522-2.283
		C179.022,94.448,179.963,92.746,178.731,93.217z"/>
	<path fill="#FFFFFF" d="M283.015,97.022c0.065,1.08-1.287,0.742-0.761,2.283c0.507,0,1.015,0,1.521,0
		C283.545,98.521,284.391,96.662,283.015,97.022z"/>
	<path fill="#FFFFFF" d="M0,97.119v1.142c0.076-0.159,0.147-0.324,0.23-0.478C0.25,97.466,0.142,97.275,0,97.119z"/>
	<path fill="#FFFFFF" d="M43.238,133.18h0.593C43.729,133.085,43.558,133.058,43.238,133.18z"/>
	<path fill="#FFFFFF" d="M282.254,75.328c0,0.762,0,1.522,0,2.284c0.507,0,1.015,0,1.521,0c-0.867-1.104-0.867-1.941,0-3.045
		C282.545,74.097,283.486,75.799,282.254,75.328z"/>
	<path fill="#FFFFFF" d="M283.015,82.94c-0.096-1.872-0.108-3.661,0.761-4.567c-1.089,0.433-1.85,1.194-2.283,2.283
		C282.142,81.275,281.893,82.793,283.015,82.94z"/>
</g>
</svg>
